<?xml version="1.0" encoding="UTF-8" standalone="no"?>
<svg
   version="1.1"
   id="Layer_1"
   x="0px"
   y="0px"
   width="720"
   viewBox="0 0 720 720"
   enable-background="new 0 0 853 778"
   xml:space="preserve"
   sodipodi:docname="mainicon.svg"
   inkscape:version="1.2.2 (b0a8486541, 2022-12-01)"
   height="720"
   xmlns:inkscape="http://www.inkscape.org/namespaces/inkscape"
   xmlns:sodipodi="http://sodipodi.sourceforge.net/DTD/sodipodi-0.dtd"
   xmlns="http://www.w3.org/2000/svg"
   xmlns:svg="http://www.w3.org/2000/svg"><sodipodi:namedview
   id="namedview142"
   pagecolor="#ffffff"
   bordercolor="#000000"
   borderopacity="0.25"
   inkscape:showpageshadow="2"
   inkscape:pageopacity="0.0"
   inkscape:pagecheckerboard="0"
   inkscape:deskcolor="#d1d1d1"
   showgrid="false"
   inkscape:zoom="1.0655527"
   inkscape:cx="339.72979"
   inkscape:cy="379.6152"
   inkscape:window-width="1920"
   inkscape:window-height="1008"
   inkscape:window-x="0"
   inkscape:window-y="0"
   inkscape:window-maximized="1"
   inkscape:current-layer="Layer_1"
   showguides="true" /><defs
   id="defs650" />
<path
   fill="#1f2427"
   opacity="1"
   stroke="none"
   d="m 236.17073,201.10916 c -41.97262,-0.0119 -83.49327,-0.0644 -125.01384,-0.023 -16.83766,0.0168 -33.67513,0.24279 -50.51276,0.36246 -3.759888,0.0267 -7.52212,0.0918 -11.279609,-0.0124 -5.315684,-0.14737 -9.416813,-3.48843 -9.595361,-7.6526 -0.186519,-4.35003 4.921293,-9.48713 9.900672,-9.57056 8.497468,-0.14239 16.998538,-0.0389 25.498098,-0.0382 53.45966,0.005 106.91933,0.009 160.37898,0.016 2.45233,2.8e-4 5.13159,-0.65507 7.29763,0.19129 2.5204,0.98479 5.29488,2.84391 6.58886,5.19037 0.75449,1.3682 -0.73787,4.75851 -1.98417,6.66567 -2.54382,3.89261 -6.54076,4.95523 -11.2785,4.871 z"
   id="path367-3"
   style="stroke-width:1.01626" />
<path
   fill="#1d2426"
   opacity="1"
   stroke="none"
   d="m 273.00316,473.57014 c -0.0835,-4.93562 -0.16704,-9.87125 0.23543,-15.35046 1.58169,-3.25147 2.67734,-5.95937 4.27435,-9.9063 1.10401,2.18 2.28435,3.46443 2.31642,4.78092 0.0789,3.24191 1.09223,4.75588 4.31011,4.83626 1.42143,0.0354 2.84319,1.27935 4.21625,2.07123 3.45771,1.99414 6.81883,4.20448 10.37968,5.95173 0.84488,0.41455 2.33242,-0.61714 3.50665,-1.04004 2.62643,-0.94595 5.18639,-2.43849 7.8748,-2.77247 3.8555,-0.47901 7.83401,0.19879 11.69586,-0.25023 2.14896,-0.2499 4.1678,-1.78332 6.24531,-2.73825 8.17403,3.75506 12.74375,2.70975 19.98632,-5.20774 2.42718,-2.65346 4.13099,-4.04657 7.75685,-1.72345 1.84253,1.1805 5.3505,0.56159 7.64588,-0.44565 13.5431,-5.94277 26.97227,-12.18651 40.39824,-18.43151 12.42273,-5.77827 24.90849,-11.42747 37.11956,-17.68604 3.86742,-1.98219 7.16582,-5.48884 10.34276,-8.72754 41.13083,-41.93004 78.95545,-87.25459 117.53806,-131.7945 3.75622,-4.33621 7.85754,-7.05103 12.72766,-9.67823 6.26409,-3.37915 12.00987,-8.40966 17.04061,-13.74392 9.38715,-9.95355 18.13671,-20.60064 27.07908,-31.03046 10.61541,-12.38118 21.15423,-24.83759 32.01741,-37.01725 0.35014,0.7561 0.409,1.2681 0.46786,1.78007 -0.16794,38.01103 -0.47793,76.02213 -0.46948,114.03313 0.0119,53.42496 -0.43291,106.86596 0.6491,160.26918 0.73205,36.12968 -24.28183,71.21065 -57.897,79.52069 -7.16984,1.77247 -14.80699,1.8893 -22.22964,1.89681 -73.43887,0.0746 -146.87863,-0.22705 -220.31606,0.10618 -11.61456,0.0527 -23.12058,1.09108 -34.25731,-3.21148 -15.41507,-5.95565 -28.17465,-15.84032 -37.31621,-30.51792 -3.8475,-6.1775 -7.05408,-12.83458 -10.26239,-19.43503 -1.08648,-2.23518 -1.28238,-4.96695 -1.59968,-8.17189 -0.30178,-2.58875 -0.88911,-4.47729 -1.47648,-6.36584 z"
   id="path345"
   style="stroke-width:1.01626" />
<path
   fill="#1f2528"
   opacity="1"
   stroke="none"
   d="m 471.43522,0.233314 c 1.41951,-0.150299 2.83902,-0.300598 4.58171,0.09105 0.39173,1.056607 0.29464,1.881039 0.55356,2.039899 4.57362,2.806533 4.30924,5.376421 0.22488,8.70122 -2.39904,1.952862 -1.91602,4.333751 0.81548,6.326381 1.52883,1.115311 3.20079,3.022326 3.52522,4.835926 1.29905,7.26064 2.21096,14.60957 3.03418,21.95565 0.47181,4.21017 2.05465,6.43203 6.28225,5.50583 1.02418,-0.22436 2.07689,-0.29899 3.5688,-0.50493 0,2.70822 -0.42129,5.07453 0.1264,7.14711 0.48344,1.82971 2.04782,3.33176 3.13499,4.9785 4.27831,4.16227 8.75136,5.1878 14.05391,1.1322 1.10832,0.43494 1.71307,0.70264 2.30973,1.39381 -1.23024,4.73258 -2.09942,8.84153 4.0309,9.38687 0.36566,0.0325 0.65785,0.72168 1.02657,1.05095 3.8451,3.43457 11.30785,3.77556 15.48619,1.314 2.38909,-1.40743 5.24154,-2.32401 7.95583,-2.56982 2.67055,-0.24184 5.4301,0.64299 8.15057,1.03342 -11.16406,12.35144 -22.33064,24.70024 -33.479,37.06792 -0.31945,0.35438 -0.44466,0.90955 -1.39008,1.52836 -3.1001,-0.0993 -5.50765,-0.15745 -7.83308,-0.65542 -4.29036,-0.91874 -8.53248,-2.09556 -13.09327,-3.33525 -1.37018,-0.43676 -2.44177,-0.70313 -3.96707,-1.01193 -31.30159,-0.14208 -62.14951,-0.33542 -92.9973,-0.31118 -23.82504,0.0187 -47.64983,0.31022 -71.90997,0.4053 -3.07691,-0.15589 -5.71866,-0.23663 -8.40248,-0.68055 -2.50536,-4.04601 -12.95262,-7.69777 -17.93799,-6.56055 -2.04512,0.46651 -5.00189,0.37457 -5.91596,1.76468 -3.0102,4.57773 -7.15075,2.73528 -10.92153,3.27334 -2.18426,0.31168 -4.30166,1.16107 -6.83852,1.85863 -1.44375,0.1781 -2.49814,0.26599 -3.55252,0.3539 -0.46732,-1.55183 -1.45446,-3.15759 -1.31975,-4.64693 1.08099,-11.94939 2.64738,-23.85344 3.53805,-35.81637 1.35382,-18.18447 11.13859,-31.60989 21.70548,-44.40714 6.74439,-8.167893 15.93465,-12.686912 25.67464,-15.760405 2.63117,-0.830281 5.19311,-1.912396 7.74555,-2.863528 0,15.401763 -0.007,30.564693 0.009,45.727593 0.002,1.92049 -0.0529,3.86952 0.21871,5.75575 0.73508,5.10534 4.0122,8.2117 8.15757,7.95158 4.76095,-0.29872 8.03612,-3.87218 8.04152,-9.18873 0.0166,-16.28351 -0.0951,-32.56715 -0.11571,-48.850794 -0.002,-1.519323 0.28865,-3.039062 1.22559,-4.75641 C 351.32953,0.463622 354.93852,0.231815 358.54753,0 c 3.89284,0 7.78571,0 12.04325,0 0.13983,1.528638 0.35413,2.846974 0.36702,4.167565 0.16015,16.460665 0.28241,32.921735 0.43402,49.382495 0.0558,6.05376 3.58216,10.88117 7.82727,10.79392 4.07882,-0.0838 7.79674,-5.26774 7.76338,-10.78937 -0.1056,-17.47961 -0.2021,-34.959283 0.29585,-52.777809 2.27685,-0.470146 3.95577,-0.601403 5.63471,-0.732669 5.84952,0 11.69904,0 18.36018,0 0,6.935174 -0.0313,13.354168 0.007,19.772698 0.0713,12.05372 0.31122,24.10829 0.21814,36.16018 -0.0407,5.26997 3.07666,8.15293 6.82197,8.87687 3.76167,0.72712 7.71549,-1.02054 9.412,-6.41721 0.28442,-1.43281 0.15919,-2.42416 0.034,-3.4155 -0.0329,-3.86589 -0.0658,-7.73178 0.37277,-12.318 0.14055,-5.55646 -0.19042,-10.39258 -0.52141,-15.2287 -0.0822,-0.70382 -0.16446,-1.40763 0.17702,-2.60391 0.19959,-1.1945 -0.0245,-1.89654 -0.24867,-2.59857 -0.31098,-7.117874 -0.62195,-14.235748 -0.9531,-21.815124 8.75391,0 17.29366,0 26.41647,0 0.15478,2.161703 0.40735,3.986157 0.3968,5.808852 -0.09,15.548652 -0.30992,31.097202 -0.2715,46.645172 0.007,2.64069 0.40774,5.76493 1.7487,7.82983 4.75756,7.32596 10.05286,6.82856 14.81653,-1.3242 0.97047,-2.15733 1.68952,-3.91271 1.69743,-5.6717 0.0794,-17.83682 0.0427,-35.674242 0.0386,-53.511504 z"
   id="path347"
   style="stroke-width:1.01626" />
<path
   fill="#1e2427"
   opacity="1"
   stroke="none"
   d="m 284.85687,184.1145 c -3.96036,0.0624 -7.92069,0.1247 -12.36166,-0.20547 -0.81081,-0.82258 -1.14103,-1.25264 -1.47118,-1.68269 -0.0882,-0.46189 -0.17639,-0.92377 0.23033,-1.78965 2.29889,-2.43493 2.88871,-4.27858 -0.19784,-5.55508 -0.0894,-5.63018 -0.17885,-11.26034 0.20288,-17.56639 2.31911,-5.58193 3.36106,-10.44337 -0.22254,-15.04874 -0.0913,-1.4508 -0.18251,-2.90159 0.17411,-4.92079 2.43731,-3.05476 4.4268,-5.54117 6.93321,-8.67365 3.04305,-0.5852 5.61218,-0.19406 6.07084,5.55758 0.24912,3.12402 2.89248,6.86095 5.46764,8.66273 1.87529,1.31213 5.48604,0.2487 8.15182,-0.47719 0.85348,-0.23239 2.00889,-3.33979 1.54238,-4.14204 -1.04219,-1.79218 -3.00157,-2.9836 -4.61973,-4.3765 -1.03167,-0.88806 -2.12151,-1.69865 -3.18527,-2.54397 0.173,-0.56193 0.34597,-1.12386 0.51895,-1.68578 2.02312,0 4.08202,0.24762 6.05773,-0.0802 1.5134,-0.25116 2.92162,-1.22907 4.69936,-1.98377 0.76418,-0.0447 1.20564,0.0107 1.72189,0.44663 4.79813,2.17057 9.40528,4.67333 14.27207,5.5836 7.31423,1.36809 14.79924,1.87799 22.23351,2.24712 4.18335,0.20772 8.40595,-0.76315 12.61947,-0.89991 3.67968,-0.11944 7.37276,0.15023 11.05753,0.3102 8.45081,0.36684 8.45548,0.38854 8.47997,9.70665 0.003,1.05025 -0.38074,2.41371 0.0916,3.08951 1.21025,1.73182 2.83896,4.53147 4.2351,4.48822 10.84056,-0.33588 21.67006,-1.18332 32.48703,-2.09055 0.84964,-0.0712 1.57867,-1.79166 2.36376,-2.74561 -0.8708,-0.75883 -1.68364,-2.05617 -2.62364,-2.17219 -2.49119,-0.30748 -5.03734,-0.10433 -7.22564,-0.10433 -0.16105,-3.09642 -0.47628,-5.3231 -0.31074,-7.50798 0.0897,-1.18386 0.71908,-2.7476 1.58602,-3.3645 4.12041,-2.93204 10.15918,-0.21876 11.66706,4.94583 0.28485,0.97555 1.13192,1.7628 1.71955,2.63697 0.72115,-0.90798 1.86858,-1.71155 2.0886,-2.74225 0.88411,-4.141 3.39541,-6.40677 7.01146,-5.39588 4.61908,1.29128 8.07313,-0.0799 11.31726,-3.26005 -0.19545,-1.36491 -0.38949,-2.73002 -0.12712,-4.1644 7.80737,-0.0807 15.15842,-0.0753 22.5093,-0.10773 9.60424,-0.0424 19.20836,-0.11476 29.16645,0.0348 4.16798,0.8895 7.98203,1.57002 11.79608,2.25055 -7.43673,7.99678 -13.87482,17.18326 -23.78509,22.20352 -2.14659,1.08739 -4.18565,2.84323 -5.7327,4.78587 -5.15164,6.46897 -2.63045,14.51596 5.50363,17.45448 1.94335,3.72749 2.83297,7.84911 5.25035,10.01233 3.50628,3.13768 3.29681,6.20527 2.29822,10.03637 -0.51592,1.97906 -0.82099,4.02118 -1.2213,6.0348 -6.68029,7.32699 -13.2844,14.73589 -20.05735,21.96327 -12.82091,13.68118 -25.72592,27.27213 -38.63146,40.86193 -1.72261,1.81392 -3.6519,3.40274 -6.12031,5.05874 -6.31717,-4.68954 -12.67716,-3.50549 -18.75896,-1.81767 -4.05859,1.12628 -4.41236,19.01412 -0.68608,22.18002 -2.07251,2.63276 -4.14502,5.26556 -6.61214,7.6459 -2.70543,-2.44435 -12.85038,-1.39686 -14.24984,1.18256 -0.0801,0.14754 -0.0854,0.3397 -0.15559,0.49553 -2.69018,5.96999 -3.49005,6.31952 -11.51142,4.12 2.0696,-4.59734 3.25761,-11.88777 6.17425,-12.79359 7.1319,-2.21493 6.67466,-9.08993 9.60688,-13.59563 1.63983,-2.51984 2.36394,-4.10787 5.48925,-4.11872 5.82384,-0.0202 7.03768,-1.5169 7.00768,-7.95481 -0.0232,-4.98349 2.41522,-7.81033 6.574,-8.77477 4.30351,-0.99793 5.33869,-3.98647 5.23653,-7.9891 -0.11193,-4.38617 0.95051,-9.30859 -4.93668,-10.92567 -1.18112,-0.32446 -2.54705,-2.28323 -2.77186,-3.68291 -0.43624,-2.71624 -0.75453,-5.80602 0.0564,-8.30189 0.82087,-2.52639 2.72104,-5.1169 4.82333,-6.51633 1.17522,-0.78231 3.73728,0.74136 5.64029,1.34843 0.56606,0.18057 1.05477,1.15389 1.51154,1.10061 0.8367,-0.0975 2.29517,-0.63506 2.32625,-1.08232 0.29506,-4.24347 0.42737,-8.50847 0.34028,-12.76106 -0.009,-0.44607 -2.11548,-1.5041 -2.59967,-1.17675 -5.50154,3.71934 -9.06644,0.737 -12.28132,-3.76931 2.9648,-2.51927 5.29797,-5.36543 3.72544,-9.80521 -1.68248,-4.75011 -5.06493,-6.24855 -9.67975,-6.21846 -34.35906,0.22408 -68.71901,0.29571 -103.59717,-0.0336 -1.78008,-0.24573 -3.04163,-0.0427 -4.30321,0.16036 m 145.212,14.26853 c 0.211,1.23025 0.42198,2.4605 0.63298,3.69074 0.70652,-0.29191 1.41304,-0.5838 2.11956,-0.87571 -0.67311,-1.01681 -1.34618,-2.03365 -2.75254,-2.81503 z"
   id="path349"
   style="stroke-width:1.01626" />
<path
   fill="#1f2427"
   opacity="1"
   stroke="none"
   d="m 446.74738,263.18263 c 17.74629,-18.61886 35.49259,-37.23767 53.32722,-55.94925 18.73823,18.30768 38.1162,37.24043 57.51635,56.19485 -38.40994,43.34582 -77.17638,87.09395 -116.12733,131.05026 -19.17773,-21.86788 -42.34411,-39.62755 -59.72746,-64.21361 1.89777,-1.89394 3.78223,-3.77458 6.12577,-5.59453 1.98404,-0.98321 3.43658,-2.19028 5.05837,-3.01612 1.16305,-0.59227 3.33622,-1.36813 3.71687,-0.87465 3.03507,3.93419 6.15798,1.96015 8.5752,-0.14504 3.19663,-2.78396 5.95291,-6.22969 8.56715,-9.679 3.57344,-4.71497 6.56845,-5.25335 10.5089,-1.05895 -4.20231,4.81231 -8.54164,9.06179 -12.26267,13.8611 -2.24482,2.89533 -2.90367,6.70984 -0.0658,9.9852 2.89461,3.34099 6.30707,4.19 10.06814,1.66236 1.50534,-1.01162 3.06507,-2.07261 4.25667,-3.4515 3.86578,-4.47345 7.75487,-8.94904 11.29634,-13.7126 4.8635,-6.54169 4.62234,-9.54262 -0.50031,-16.33806 5.16707,-6.1125 5.17405,-6.44714 1.04521,-12.91096 -0.52362,-0.81971 -0.63091,-1.93066 -1.06526,-2.83256 -0.89379,-1.85593 -1.87835,-3.66176 -2.78181,-5.40391 1.33362,-1.30095 2.99087,-2.91758 4.64865,-4.53198 6.13943,3.21507 10.15094,1.29829 10.5689,-5.6592 0.14343,-2.38758 -1.77346,-4.91715 -2.74906,-7.38185 m 28.98653,-3.2854 c -1.12031,0.70737 -2.24063,1.4147 -4.01981,2.31899 -5.70442,6.08261 -11.65499,11.93048 -16.99869,18.35717 -2.31189,2.78047 -1.76872,6.59567 0.86334,9.50243 2.55934,2.82646 5.71305,3.54176 8.90941,1.76918 2.24734,-1.2462 4.79514,-2.83846 6.02585,-5.03609 3.47842,-6.21135 6.34765,-12.81406 9.68881,-19.78684 0.1475,-0.54072 0.29494,-1.08145 1.14986,-1.73897 2.43092,-0.68971 4.93383,-1.18033 7.2646,-2.14704 1.30515,-0.5414 2.32496,-1.87176 4.04414,-3.25774 5.0422,-3.81921 10.47043,-7.18432 15.00239,-11.60374 3.52115,-3.43369 3.14062,-9.18774 0.40714,-12.42588 -3.12126,-3.69752 -6.85314,-4.06477 -11.43604,-0.79609 -6.92776,4.94118 -12.78742,10.90456 -15.93247,20.04034 -1.46338,1.47581 -2.92683,2.95159 -4.96853,4.80428 z"
   id="path351"
   style="stroke-width:1.01626" />
<path
   fill="#21282a"
   opacity="1"
   stroke="none"
   d="m 398.33019,200.06591 c 3.59625,4.45178 7.16115,7.43412 12.66269,3.71478 0.48419,-0.32735 2.59053,0.73067 2.59967,1.17674 0.0871,4.2526 -0.0452,8.5176 -0.34028,12.76107 -0.0311,0.44726 -1.48955,0.98484 -2.32625,1.08231 -0.45677,0.0533 -0.94548,-0.92003 -1.51154,-1.1006 -1.90301,-0.60707 -4.46507,-2.13074 -5.64029,-1.34843 -2.10229,1.39943 -4.00246,3.98994 -4.82333,6.51633 -0.81096,2.49587 -0.49267,5.58565 -0.0564,8.30189 0.22481,1.39968 1.59074,3.35845 2.77186,3.68291 5.88719,1.61707 4.82475,6.5395 4.93668,10.92567 0.10216,4.00263 -0.93302,6.99117 -5.23653,7.9891 -4.15878,0.96444 -6.59722,3.79128 -6.574,8.77477 0.03,6.43791 -1.18384,7.93463 -7.00768,7.95481 -3.12531,0.0108 -3.84942,1.59888 -5.48925,4.11872 -2.93222,4.5057 -2.47498,11.3807 -9.60688,13.59563 -2.91664,0.90582 -4.10465,8.19625 -6.17425,12.79359 8.02137,2.19952 8.82124,1.84999 11.51142,-4.12 0.0702,-0.15583 0.0755,-0.34799 0.15559,-0.49553 1.39946,-2.57942 11.54441,-3.62691 13.92918,-1.02098 -4.34649,5.28034 -8.76691,10.14673 -13.82687,15.00241 -1.64535,-0.0341 -2.65116,-0.0574 -3.65693,-0.0809 0.26572,1.17693 0.53148,2.35384 0.79723,3.53077 -0.43381,0.63329 -0.86763,1.26658 -1.92447,2.01988 -1.48975,1.46991 -2.35645,2.81975 -3.22315,4.16958 -0.39288,0.66398 -0.78578,1.32793 -1.8604,2.09293 -1.61568,0.35094 -2.54965,0.60078 -3.48362,0.85062 0.0197,0.28636 0.0395,0.57273 0.0592,0.85909 0.73103,0.22699 1.46207,0.45397 2.19307,0.68099 -3.0191,5.73245 -6.03817,11.46486 -9.67146,17.45475 -2.01074,1.53658 -3.4073,2.81568 -6.07005,5.25447 -0.31856,-5.04716 -0.32461,-8.8885 -0.89256,-12.63201 -0.30411,-2.00437 -1.10293,-4.72006 -2.50198,-5.58249 -3.74353,-2.30779 -7.9318,-3.7881 -13.08166,-6.11051 1.90502,-1.28773 3.02363,-2.10651 4.19824,-2.81943 1.05918,-0.64276 2.65493,-0.8595 3.19063,-1.80137 2.28166,-4.0117 -0.1691,-14.10663 -3.77989,-16.9348 -2.41881,-1.89448 -4.11723,-1.87614 -4.99972,1.58177 -1.03515,4.05603 -2.11476,8.09903 -3.28737,12.57645 -0.44083,-0.0968 -1.823,-0.40039 -3.50461,-0.70281 -0.81557,0.10871 -1.33174,0.21624 -1.8479,0.32376 0.008,0.18782 0.0158,0.37568 0.0236,0.56351 0.70469,0.054 1.40941,0.108 2.39004,0.42691 0.0932,8.92737 -0.7402,17.64711 -0.0809,26.23545 0.60373,7.86459 -3.33844,13.57711 -5.80062,20.10237 -2.27038,6.01699 -4.01903,12.25773 -6.2079,18.31262 -1.95333,5.40344 -3.32885,11.39669 -6.51406,15.85579 -4.61512,6.46087 -10.58742,11.8219 -16.08482,17.53731 -1.10134,1.145 -2.58783,2.29048 -4.03563,2.55133 -5.22233,0.94102 -10.50396,1.50425 -15.76321,2.21018 -0.24166,-2.21966 -0.48329,-4.4393 -0.37259,-7.39642 0.20825,-5.34726 0.0642,-9.95711 -0.0799,-14.56693 -0.0709,-1.19735 -0.1419,-2.3947 0.1065,-4.27794 0.0687,-1.8826 -0.1819,-3.07928 -0.27756,-4.59422 4.88567,-3.30369 9.61638,-6.28916 14.63169,-9.45424 -3.4364,-3.90572 -6.65599,-7.56504 -9.4298,-11.23723 7.67237,-0.72518 14.89894,-1.43746 22.2111,-1.7391 1.81508,0.84721 3.55024,1.66618 5.27294,1.63701 3.13285,-0.0531 6.25822,-0.61 9.76145,-0.96569 4.5577,-1.55224 4.32311,-5.61902 4.45083,-9.06429 0.27238,-7.34621 -0.0775,-14.71747 0.14016,-22.06785 0.14855,-5.01689 -1.77535,-6.98208 -6.40191,-6.79772 -2.86591,0.11413 -6.24869,0.4048 -8.54959,-0.99091 -8.09797,-4.91229 -12.50403,-4.6517 -19.17881,2.30602 -0.98929,1.03128 -2.12294,1.90369 -3.28134,2.93074 -3.38849,-7.86171 -1.40423,-11.33182 6.10688,-11.53265 1.14315,-0.0306 2.29727,0.0144 3.42648,-0.14087 2.88931,-0.39739 6.73396,0.13695 8.37263,-1.63553 1.57354,-1.70207 0.84182,-5.83496 1.17533,-8.89313 0.0258,-0.23712 0.46363,-0.42273 1.30857,-1.1415 1.41343,1.69892 2.84475,3.41927 4.7949,5.76332 -0.83721,-4.40879 -1.49156,-7.85455 -2.16364,-11.39389 -1.38331,0.4237 -2.60513,0.79798 -4.0095,1.22816 0.27129,-1.88042 0.46845,-3.24695 1.088,-4.66028 1.55048,-0.13968 2.67858,-0.23253 4.06213,-0.37895 0.69459,0.18779 1.13371,0.42909 1.57696,1.13684 0.80703,0.51252 1.60993,0.55854 2.71385,0.69797 0.42614,0.27262 0.55129,0.45178 0.24181,1.01905 -0.67143,2.09037 -1.24138,3.82799 -1.08777,5.48887 0.68875,7.44543 3.4005,9.28203 9.24253,6.15092 4.41419,-0.48295 8.05712,-1.67754 10.30692,-6.2353 3.41186,-5.0642 2.71754,-7.29913 -2.93384,-11.09193 0.52132,-0.94556 0.93592,-1.4922 1.27435,-2.08835 3.35339,-5.90746 2.24473,-7.56405 -3.97207,-8.75427 -3.034,-0.58088 -5.67985,-3.48693 -8.48597,-5.33038 3.2168,-5.19375 6.26644,-7.96115 11.221,-7.09048 5.11459,0.8988 8.75103,-0.9261 10.95995,-6.3449 0.96145,-2.35856 3.10442,-4.19382 5.85731,-1.39179 1.01237,1.03042 2.56551,1.45133 3.87201,2.15023 -0.18556,-1.6874 -0.34304,-3.37916 -0.57034,-5.0601 -0.0918,-0.67858 -0.33606,-1.33354 -0.17918,-2.18168 2.20724,-0.70557 4.41916,-0.7306 5.88234,-1.86421 2.41905,-1.87426 5.21612,-4.1192 6.17773,-6.87809 0.59351,-1.70284 -1.39452,-5.37769 -3.17395,-6.84661 -2.12627,-1.75521 -5.26326,-2.88805 -7.96968,-2.90422 -7.27742,-0.0435 -14.55868,0.65085 -22.2766,0.96038 -3.4014,-0.0718 -6.36464,-0.0519 -9.76172,-0.16077 -2.56781,-0.0888 -4.70182,-0.0485 -6.93267,0.0146 -0.0969,0.0228 -0.29441,0.0428 -0.63005,-0.25731 -10.25591,-0.8252 -20.17814,-1.31274 -30.09485,-1.90574 -2.08342,-0.1246 -4.14658,-0.63689 -6.21909,-0.97053 0,-12.50578 0,-25.01158 0,-38.86213 30.49514,0 60.96675,0 91.78296,0.4869 -3.71762,1.10899 -7.77981,1.73108 -11.84199,2.35316 0.006,0.62216 0.0119,1.24431 0.0178,1.86646 2.59137,0.1697 5.195,0.22509 7.77048,0.54253 2.37701,0.29294 5.77116,-1.42867 6.5134,3.68862 -4.40753,-0.20529 -7.10394,1.63948 -7.80776,6.39277 -0.13815,0.93301 -1.90319,2.16088 -2.99429,2.25688 -3.69865,0.32529 -4.29806,2.74505 -3.75885,5.83823 0.67289,3.86024 3.63197,3.08621 5.87862,2.54045 4.30795,-1.04653 8.44757,-3.00717 12.78261,-3.7705 3.80719,-0.67036 4.64326,-2.71531 4.89026,-6.36536 0.34535,-5.10313 1.29589,-10.15932 1.98752,-15.23559 1.98063,-0.004 3.96128,-0.007 6.49518,0.41157 0.89756,0.59205 1.24189,0.76075 1.58619,0.92941 4.52668,-1.01613 9.05337,-2.03229 13.96139,-3.10296 z"
   id="path353"
   style="stroke-width:1.01626" />
<path
   fill="#1e2325"
   opacity="1"
   stroke="none"
   d="m 656.84672,157.88718 c -19.87106,23.9407 -39.51689,47.5975 -58.80544,70.82405 -22.20345,-21.45597 -44.37688,-42.88288 -66.33622,-64.10299 32.77421,-34.12497 65.52002,-68.22043 98.58629,-102.64948 19.77337,18.55969 38.52688,36.16212 57.83455,54.28469 -10.64963,14.18394 -20.85179,27.77189 -31.27918,41.64373 m -40.10234,-40.32094 c 7.26927,-8.04568 14.63228,-15.99905 21.70527,-24.23804 1.0418,-1.21357 1.60663,-4.57574 0.83975,-5.56913 -2.09588,-2.71504 -5.02115,-4.69576 -8.19245,-7.46988 -10.42518,11.40395 -20.27174,22.38574 -30.33586,33.13377 -14.34765,15.32259 -28.87913,30.44767 -43.26957,45.72464 -2.28288,2.4235 -5.01582,4.99452 -1.93316,8.89978 2.50201,3.16956 6.5579,3.73251 10.08031,1.16507 1.60777,-1.17182 3.07433,-2.5968 4.48749,-4.03903 15.37662,-15.69348 30.72993,-31.41315 46.61822,-47.60718 z"
   id="path355"
   style="stroke-width:1.01626" />
<path
   fill="#1d2429"
   opacity="1"
   stroke="none"
   d="m 288.10264,698.32376 c 2.24036,-0.15836 4.48075,-0.31666 7.33233,-0.17447 1.46587,0.38451 2.32055,0.4686 3.3969,0.82866 1.37875,-0.29253 2.53584,-0.86101 3.69289,-1.42956 3.65616,-0.24407 7.31228,-0.48806 11.56482,-0.48396 1.54607,-0.12639 2.49574,-0.50076 3.44542,-0.87519 0.66145,-0.18911 1.3229,-0.37816 2.42832,-0.093 4.74206,1.49408 9.12295,3.54863 13.00111,-0.67851 14.706,-0.0993 29.41204,-0.19122 44.11795,-0.30157 5.72309,-0.0429 11.44588,-0.12716 17.96821,0.02 1.77184,-0.40633 2.74432,-1.02521 3.7168,-1.64403 5.91872,-0.0979 11.83747,-0.19585 18.26015,0.17929 1.76531,0.60636 3.02665,0.73963 4.28799,0.87296 6.99346,0.18955 13.98646,0.51475 20.98047,0.54261 19.5514,0.078 39.10325,0.033 59.15922,0.55038 1.45313,2.21561 3.2313,3.93558 3.19923,5.61582 -0.10734,5.61003 5.14055,7.63992 6.86351,6.32712 5.5318,-4.21513 11.58007,-4.29492 17.65969,-5.30582 2.71633,-0.45159 5.29523,-1.78487 7.9816,-2.53176 1.95324,-0.54299 3.9805,-0.78038 6.36335,-1.10801 2.75062,0.44536 5.11268,0.84483 7.4658,1.69127 -0.0996,6.54377 0.76873,12.22712 5.86948,16.08547 -32.46225,1.06329 -64.9188,2.48302 -97.38854,3.08432 -29.39037,0.54442 -58.80619,0.75323 -88.19057,0.0874 -30.83653,-0.6988 -61.64905,-2.61348 -92.83605,-4.39661 -0.36402,-0.39992 -0.42098,-0.89639 -0.42488,-1.299 1.33608,-1.49087 2.67207,-2.58483 4.01714,-3.66577 1.17846,-0.94709 2.87202,-1.61668 3.44318,-2.87479 1.09379,-2.4096 1.55224,-5.15003 2.35837,-7.96256 0.31442,-0.45146 0.3751,-0.73526 0.26611,-1.06078 z"
   id="path357"
   style="stroke-width:1.01626" />
<path
   fill="#21272a"
   opacity="1"
   stroke="none"
   d="m 301.5432,300.259 c -0.19716,1.36655 -0.39432,2.73308 -0.66561,4.6135 1.40437,-0.43018 2.62619,-0.80446 4.0095,-1.22816 0.67208,3.53934 1.32643,6.9851 2.16364,11.3939 -1.95015,-2.34405 -3.38147,-4.06441 -4.7949,-5.76333 -0.84494,0.71877 -1.28274,0.90438 -1.30857,1.1415 -0.33351,3.05817 0.39821,7.19106 -1.17533,8.89313 -1.63867,1.77248 -5.48332,1.23815 -8.37263,1.63553 -1.12921,0.15531 -2.28333,0.11031 -3.42648,0.14087 -7.51111,0.20083 -9.49537,3.67094 -6.10688,11.53265 1.1584,-1.02705 2.29205,-1.89946 3.28134,-2.93074 6.67478,-6.95772 11.08084,-7.21831 19.17881,-2.30602 2.3009,1.39571 5.68368,1.10504 8.54959,0.99091 4.62656,-0.18436 6.55046,1.78083 6.40191,6.79772 -0.21762,7.35039 0.13222,14.72164 -0.14016,22.06785 -0.12772,3.44527 0.10687,7.51205 -4.3888,8.68164 3.20439,-5.6127 3.09663,-11.50421 1.98977,-17.38078 -1.25745,-6.67617 -4.46049,-9.17717 -10.64997,-9.66766 -1.77256,-0.14049 -3.67338,-1.1096 -5.15388,-2.24125 -3.21499,-2.45757 -14.69965,-2.54092 -17.73676,-0.20538 -3.21943,2.4757 -6.73087,4.51577 -10.12406,6.27247 -0.26096,-3.99329 -0.51262,-7.51286 -0.76432,-11.03247 -0.0391,-1.16566 -0.0781,-2.3313 0.19898,-4.13527 -0.20354,-1.53202 -0.72324,-2.42571 -1.24291,-3.31939 -1.15514,-4.02956 -3.97753,-4.98808 -7.54932,-4.98814 -49.7186,-7.1e-4 -99.43721,-0.0454 -149.1558,-0.089 -10.95953,-0.009 -21.9201,0.025 -32.87792,-0.1367 -3.25123,-0.048 -6.50811,-0.59734 -9.73845,-1.09528 -4.12024,-0.63515 -7.144,-2.82871 -7.31618,-7.64625 -0.1222,-3.41973 4.4754,-8.17815 8.2317,-8.41056 7.43586,-0.46007 14.89117,-0.76951 22.33845,-0.77037 27.63262,-0.003 55.26695,-0.0284 82.89739,0.28341 28.28208,0.31916 56.5599,1.05795 84.84117,1.49346 2.20026,0.0339 4.41317,-0.87446 7.34128,-1.57313 4.9721,-0.59515 9.22308,-0.96205 13.9424,-1.27451 6.08657,0.12155 11.70477,0.18869 17.323,0.25585 z"
   id="path359"
   style="stroke-width:1.01626" />
<path
   fill="#1f2427"
   opacity="1"
   stroke="none"
   d="m 307.71628,243.2719 c 0,-3e-5 0.19749,-0.0201 0.44802,0.23354 0.57358,0.49935 0.89663,0.74517 1.22253,1.37988 -2.05935,4.20405 -4.02023,8.08741 -6.20742,11.81859 -3.30601,5.63979 -7.98523,8.27817 -14.37549,7.65813 -4.63284,-0.44954 -9.07151,0.23838 -12.17314,4.85214 -0.59845,0.89026 -2.28486,0.94148 -3.52351,1.01142 -0.88285,-1.9561 -1.71161,-3.54391 -2.54034,-5.1317 -2.34956,-0.85658 -4.6978,-2.45273 -7.04889,-2.45751 -29.77369,-0.0604 -59.54794,0.22762 -89.32173,0.18686 -33.53332,-0.046 -67.06642,-0.32269 -100.59942,-0.53396 -4.64581,-0.0292 -8.63791,-3.47675 -8.73901,-7.32839 -0.11151,-4.24848 4.34353,-9.3477 8.74202,-9.93731 0.96774,-0.12973 1.96107,-0.0536 2.94256,-0.0507 30.74787,0.0926 61.49604,0.32445 92.2435,0.24223 27.27948,-0.073 54.55794,-0.52497 81.83739,-0.73154 4.57166,-0.0346 9.14588,0.44755 13.71904,0.44987 1.89837,9.5e-4 3.79704,-0.63121 6.49365,-1.26199 12.82547,-0.32421 24.85287,-0.36193 36.88024,-0.39961 z"
   id="path361"
   style="stroke-width:1.01626" />
<path
   fill="#20262a"
   opacity="1"
   stroke="none"
   d="m 276.99534,367.38328 c 3.21958,3.65929 6.43917,7.31862 9.87557,11.22434 -5.01531,3.16507 -9.74602,6.15054 -14.97572,9.46803 -0.72764,0.35363 -0.9563,0.3752 -1.18492,0.39677 -1.48221,-0.70798 -2.96039,-2.02466 -4.44718,-2.03589 -50.33102,-0.38153 -100.66277,-0.65804 -150.9946,-0.90454 -19.10456,-0.0936 -38.20957,-0.0855 -57.3144,-0.10307 -4.323836,-0.004 -7.820021,-0.93134 -9.913822,-5.86246 -1.389993,-3.27364 -1.304615,-5.56543 1.6138,-8.05911 1.265357,-0.72839 1.871897,-1.35844 2.478444,-1.98849 1.419863,-0.29089 2.839712,-0.58181 4.931198,-0.57327 6.68606,0.37216 12.71403,0.73748 18.71028,0.41853 4.2585,-0.2265 8.4742,-1.37599 12.70901,-2.1135 11.79054,-0.0732 23.58107,-0.14646 36.09068,0.20516 4.54091,0.93933 8.37882,1.97038 12.18043,1.83478 4.54815,-0.16225 9.0653,-1.32165 13.59589,-2.04916 12.76874,-0.0837 25.53748,-0.16738 39.02206,0.17843 4.70153,0.95715 8.69353,1.938 12.67094,1.87422 3.39758,-0.0545 6.7784,-1.30817 10.16663,-2.03139 9.17935,-0.0475 18.35874,-0.095 28.24432,0.25995 4.77119,0.66236 8.83613,0.92231 12.90111,1.18225 5.4065,-0.31662 10.81298,-0.63328 16.98391,-1.1085 2.72838,-0.17675 4.69238,-0.19496 6.65637,-0.21312 z"
   id="path363"
   style="stroke-width:1.01626" />
<path
   fill="#202529"
   opacity="1"
   stroke="none"
   d="m 208.5607,102.75021 c -41.01486,0.24286 -81.5666,0.52274 -122.11868,0.73219 -8.82285,0.0456 -17.65769,0.0924 -26.46648,-0.34058 -5.856691,-0.28787 -8.133902,-2.81294 -8.208724,-7.58079 -0.082,-5.22417 3.08577,-9.3701 7.973844,-10.38611 0.63544,-0.13209 1.30309,-0.0986 1.95643,-0.11787 19.24632,-0.57029 38.48987,-1.35198 57.7399,-1.64533 19.45543,-0.2965 38.9173,-0.11767 58.37633,-0.13054 19.61045,-0.0129 39.22093,-0.0237 58.83134,0.003 6.56254,0.008 12.58597,4.15446 12.94021,8.77995 0.29489,3.85017 -6.37722,10.07656 -12.14331,10.35838 -9.45773,0.46223 -18.94377,0.26094 -28.88086,0.3277 z"
   id="path365"
   style="stroke-width:1.01626" />
<path
   fill="#1f2427"
   opacity="1"
   stroke="none"
   d="m 235.40103,154.59634 c -41.97261,-0.0119 -83.49327,-0.0644 -125.01383,-0.023 -16.83767,0.0168 -33.67514,0.2428 -50.51277,0.36247 -3.759888,0.0267 -7.52212,0.0918 -11.279609,-0.0124 -5.315683,-0.14737 -9.416813,-3.48843 -9.595361,-7.6526 -0.186519,-4.35003 4.921293,-9.48713 9.900672,-9.57056 8.497468,-0.14239 16.998548,-0.0389 25.498108,-0.0382 53.45965,0.005 106.91932,0.009 160.37898,0.016 2.45232,2.8e-4 5.13158,-0.65507 7.29762,0.19129 2.52041,0.98479 5.29488,2.84391 6.58886,5.19037 0.75449,1.3682 -0.73787,4.75851 -1.98417,6.66567 -2.54381,3.89261 -6.54075,4.95523 -11.2785,4.871 z"
   id="path367"
   style="stroke-width:1.01626" />
<path
   fill="#1d2426"
   opacity="1"
   stroke="none"
   d="m 550.58384,73.90345 c -3.00792,-0.2425 -5.76747,-1.12733 -8.43802,-0.88549 -2.71429,0.24581 -5.56674,1.16239 -7.95583,2.56982 -4.17834,2.46156 -11.64109,2.12057 -15.48619,-1.314 -0.36872,-0.32927 -0.66091,-1.01842 -1.02657,-1.05095 -6.13032,-0.54534 -5.26114,-4.65429 -3.98295,-9.80503 0.62908,-3.88723 1.70624,-6.93618 1.6888,-9.97794 -0.0787,-13.72508 -0.52899,-27.44714 -0.72174,-41.17228 -0.12053,-8.582222 -0.0132,-8.426251 7.95175,-8.934486 1.64086,-0.1047 3.18935,-1.868778 4.78046,-2.868014 2.66017,-0.06481 5.32041,-0.129629 8.49471,0.318731 0.64988,0.76958 0.78575,1.02598 0.92169,1.282381 0.15373,0.566482 0.30741,1.132956 0.0176,2.112292 -0.19048,1.788241 0.0626,3.163636 0.31562,4.539031 0.1,2.845161 0.19988,5.690337 -0.051,9.187589 -0.1822,1.583066 -0.0135,2.514056 0.15518,3.445036 0.0182,2.49546 0.0363,4.99094 -0.4159,7.94988 -4.06566,0.36873 -3.81681,2.5223 -3.0404,5.35107 1.26164,-1.06242 2.28606,-1.92507 3.31047,-2.78771 0.0369,4.01916 0.087,8.03823 0.10711,12.05749 0.0229,4.57715 2.3243,7.17292 6.36053,7.84418 5.05286,0.84032 8.20169,-1.4558 9.90008,-6.97393 0.82189,-1.49438 1.38403,-2.44993 1.38865,-3.40857 0.0607,-12.60946 0.07,-25.219548 -0.003,-37.828819 -0.006,-1.094786 -0.68794,-2.18507 -1.05594,-3.277449 3.16998,0.08893 6.33955,0.230475 9.5099,0.255093 5.44945,0.04232 10.89932,0.0117 16.40493,0.0117 0.60655,11.492916 1.2083,22.895135 1.66914,35.094795 -0.7556,1.32411 -1.29586,2.08719 -1.99663,2.34014 -5.76633,2.08136 -7.18692,3.9522 -6.7341,10.38317 0.2003,2.84568 1.23934,5.62364 1.89761,8.43233 -9.93796,2.37897 -16.7736,9.72552 -23.96555,17.10993 z"
   id="path369"
   style="stroke-width:1.01626" />
<path
   fill="#202529"
   opacity="1"
   stroke="none"
   d="m 272.7271,419.10493 c 5.39497,-0.9135 10.6766,-1.47672 15.89893,-2.41775 1.4478,-0.26085 2.93429,-1.40633 4.03563,-2.55132 5.4974,-5.71541 11.4697,-11.07644 16.08482,-17.53732 3.18521,-4.4591 4.56073,-10.45235 6.51406,-15.85579 2.18887,-6.05488 3.93752,-12.29563 6.2079,-18.31262 2.46218,-6.52526 6.40435,-12.23778 5.80062,-20.10237 -0.65926,-8.58833 0.17411,-17.30808 0.0833,-26.49806 -0.2736,-0.52753 -0.26871,-1.05276 -0.26871,-1.05276 1.38217,0.30361 2.76434,0.6072 3.20517,0.704 1.17261,-4.47742 2.25222,-8.52042 3.28737,-12.57645 0.88249,-3.45791 2.58091,-3.47624 4.99972,-1.58176 3.61079,2.82816 6.06155,12.92309 3.77989,16.9348 -0.5357,0.94186 -2.13145,1.1586 -3.19063,1.80137 -1.17461,0.71291 -2.29322,1.53169 -4.19824,2.81942 5.14986,2.32241 9.33813,3.80272 13.08166,6.11051 1.39905,0.86243 2.19787,3.57812 2.50198,5.58249 0.56795,3.74351 0.574,7.58485 0.89256,12.63201 2.66275,-2.43879 4.05931,-3.71789 5.80166,-5.02604 -3.20157,8.85741 -6.74885,17.74385 -10.83993,26.97221 -3.69235,4.31428 -6.87831,8.26767 -6.94825,13.99938 -4.34697,1.88607 -4.73988,4.3112 -1.47403,7.57416 0.28922,0.51053 0.53652,0.70837 0.84413,0.81977 -2.40682,7.55667 -4.81365,15.11334 -7.80051,22.77991 -3.77317,-1.90341 -8.74104,-3.16996 -9.80778,-6.07801 -2.61001,-7.11517 -5.12229,-5.76101 -8.83134,-1.66097 -0.21541,0.23812 -0.54907,0.44511 -0.85027,0.48915 -7.19942,1.05317 -6.87724,8.40183 -8.691,13.21587 -1.53069,4.06286 -0.55623,9.33432 -0.18437,14.02476 0.12893,1.62558 1.5283,3.42515 2.79429,4.58643 1.68928,1.54956 3.81429,2.55425 6.28558,4.13389 2.02432,-1.58912 4.30933,-3.38288 6.59434,-5.17661 0.28229,2.51439 0.56462,5.02877 0.47241,7.91939 -1.39779,0.64215 -3.31659,0.95438 -3.307,1.16685 0.1057,2.3431 0.51116,4.67068 0.83544,7.00248 1.65512,-0.90198 3.3103,-1.80398 4.96547,-2.70598 1.20818,1.61647 2.41636,3.23292 3.36514,5.3491 -6.71154,3.04349 -12.61132,0.59865 -17.61674,-3.11629 -1.93526,-1.43631 -1.78737,-6.09353 -2.58406,-9.28464 -0.0416,-0.16663 0.018,-0.40001 -0.0701,-0.50961 -0.69025,-0.85883 -1.35029,-2.3094 -2.12561,-2.38864 -1.0623,-0.10865 -2.42056,0.58386 -3.27281,1.39182 -0.75426,0.7151 -0.98992,2.05772 -1.49731,3.22134 -1.79998,-0.2578 -3.37146,-0.60335 -4.95519,-0.68924 -7.83048,-0.42459 -11.21764,-3.99886 -11.62221,-12.37267 -0.2134,-4.41663 -3.71986,-8.77937 -7.84369,-10.21115 -0.11031,-1.10928 -0.19992,-1.74068 -0.28949,-2.37207 -0.25086,-0.27068 -0.317,-0.58583 -0.0627,-1.15299 z"
   id="path371"
   style="stroke-width:1.01626" />
<path
   fill="#1c2225"
   opacity="1"
   stroke="none"
   d="m 366.24362,363.02244 c 2.06056,-5.37201 4.02695,-10.35103 6.08936,-15.57318 18.78668,18.91372 37.37285,37.62555 56.26438,56.64484 -22.37441,9.62235 -44.48584,19.1316 -66.58968,28.63759 -3.94672,-5.02623 -8.23345,-10.29162 -12.2606,-15.77571 -0.81803,-1.11393 -1.28984,-3.30218 -0.85217,-4.57271 5.63849,-16.3673 11.47108,-32.65787 17.34871,-49.36083 m 24.78811,37.15496 c 2.18084,-5.18659 1.22958,-9.93519 -3.0588,-12.93192 -2.4113,-1.68496 -6.44573,-3.08694 -8.76625,-2.0627 -5.48176,2.41977 -9.06129,7.29342 -9.07082,14.24662 -0.008,5.86147 5.89858,11.67701 10.73804,9.56759 3.68945,-1.60822 6.58508,-5.30547 10.15783,-8.81959 z"
   id="path373"
   style="stroke-width:1.01626" />
<path
   fill="#292f32"
   opacity="1"
   stroke="none"
   d="m 102.3665,67.04135 c -2.10158,-0.007 -3.73919,0.0516 -5.36941,-0.0402 -5.08618,-0.28631 -8.98596,-3.79964 -9.2306,-8.24799 -0.21533,-3.91519 3.97835,-9.09727 8.38607,-9.31974 12.69773,-0.64091 25.41229,-0.91496 38.12195,-1.26246 5.69898,-0.15584 11.40313,-0.25539 17.10296,-0.18815 28.55886,0.3369 57.11688,0.75791 85.67577,1.09209 3.94462,0.0462 7.4631,1.2783 8.43858,5.54192 1.0089,4.40976 -1.38343,8.40108 -5.03994,9.73374 -4.98645,1.81737 -10.42032,3.02964 -15.67205,3.07029 -23.02356,0.17824 -46.05045,-0.19419 -69.07641,-0.29913 -17.62298,-0.0804 -35.24636,-0.0592 -53.33692,-0.0805 z"
   id="path375"
   style="stroke-width:1.01626" />
<path
   fill="#21272a"
   opacity="1"
   stroke="none"
   d="m 247.53089,443.11414 c -24.98548,-0.1114 -49.97103,-0.20458 -74.95639,-0.34073 -16.32774,-0.089 -32.65524,-0.23167 -48.98265,-0.37707 -1.6306,-0.0145 -3.25974,-0.21549 -5.2975,-0.85007 -2.19082,-2.17092 -4.77056,-5.61176 -5.62443,-5.17576 -4.77986,2.44082 -5.36615,0.003 -6.03129,-4.17707 -0.27433,-1.72392 -2.45277,-3.08701 -3.73246,-4.64507 -0.91648,-1.11582 -1.77851,-2.28293 -2.66485,-3.42716 13.5267,-0.16128 27.05325,-0.43702 40.58015,-0.45914 25.1144,-0.041 50.22902,0.0661 76.04074,0.56278 3.17655,0.23135 5.65587,0.0112 8.13522,-0.20876 0.4203,-0.085 0.84059,-0.16998 1.81251,0.19771 9.78737,0.98877 19.01971,1.62173 28.26107,2.0005 2.68855,0.11022 5.40303,-0.5059 8.10564,-0.78909 1.40078,0.0105 2.80159,0.0209 4.57496,0.23549 0.37262,0.20407 0.31589,0.45284 0.0678,0.78225 -1.00083,4.7532 -0.84988,8.95872 2.30254,12.84578 0.0285,1.48322 0.0566,2.55996 -0.0274,3.77095 -0.11208,0.13429 -0.30843,0.42678 -0.30843,0.42678 -4.16758,-0.0194 -8.33516,-0.0387 -13.10042,-0.5334 -4.55929,-4.30495 -6.99651,-4.1237 -9.15478,0.16108 z"
   id="path377"
   style="stroke-width:1.01626" />
<path
   fill="#262c2e"
   opacity="1"
   stroke="none"
   d="m 273.16139,270.59397 c 1.18453,-0.43831 2.87094,-0.48953 3.46939,-1.37979 3.10163,-4.61376 7.5403,-5.30168 12.17314,-4.85214 6.39026,0.62004 11.06948,-2.01834 14.37549,-7.65813 2.18719,-3.73118 4.14807,-7.61454 6.55052,-11.85467 0.79499,0.98401 1.69756,2.42272 1.61784,3.79605 -0.21223,3.65698 -0.84743,7.28581 -1.31103,10.8992 1.45859,0.3605 2.38651,0.58986 3.4014,1.1727 1.98384,0.15426 3.8807,-0.0449 6.03083,-0.34076 0.41631,-0.17641 0.57939,-0.25613 0.9949,-0.2354 0.41064,0.1914 0.56887,0.28229 0.82417,0.70413 1.36212,0.25606 2.62718,0.18122 4.34091,0.0105 7.00068,0.0143 13.55261,0.12457 20.10455,0.23482 0.17486,0.6657 0.41916,1.32067 0.51092,1.99924 0.2273,1.68095 0.38478,3.37271 0.57034,5.0601 -1.3065,-0.69889 -2.85964,-1.1198 -3.87201,-2.15023 -2.75289,-2.80202 -4.89586,-0.96677 -5.85731,1.3918 -2.20892,5.4188 -5.84536,7.2437 -10.95995,6.3449 -4.95456,-0.87067 -8.0042,1.89673 -11.221,7.09047 2.80612,1.84345 5.45197,4.7495 8.48597,5.33038 6.2168,1.19022 7.32546,2.84681 3.97207,8.75428 -0.33843,0.59615 -0.75303,1.14279 -1.70241,2.0827 -4.15422,0.53429 -7.7383,0.69837 -11.62934,0.72761 -2.93684,0.0496 -5.56674,0.23404 -8.67101,0.31914 -7.43796,-0.21829 -14.40159,-0.33724 -21.81192,-0.40086 -2.8393,7e-5 -5.23186,-0.0551 -7.85518,-0.3085 -1.02357,-0.28036 -1.81643,-0.36256 -2.81855,-0.63236 -0.66007,-0.75504 -1.11082,-1.32253 -1.56156,-1.88999 -0.13845,-6.34394 -0.2769,-12.68786 -0.004,-19.65219 0.89175,-1.93457 1.37247,-3.24875 1.85315,-4.56293 z"
   id="path379"
   style="stroke-width:1.01626" />

<path
   fill="#1e2325"
   opacity="1"
   stroke="none"
   d="m 584.20512,242.50635 c -0.73835,0.61913 -1.53663,1.17199 -2.20599,1.86729 -10.50045,10.90735 -8.32258,10.79607 -19.24869,0.25648 -16.01967,-15.45301 -31.9166,-31.05341 -47.75928,-46.71469 -6.85931,-6.78074 -6.7814,-7.50275 -0.77442,-15.2841 1.5543,-2.01342 3.23106,-3.91846 5.16817,-6.25524 20.85724,19.57123 41.65047,39.08239 62.27079,58.97825 -0.58113,1.20342 -1.52686,2.45498 -1.30713,2.76795 1.11977,1.59483 2.5409,2.94698 3.85655,4.38406 z"
   id="path383"
   style="stroke-width:1.01626" />
<path
   fill="#1f2528"
   opacity="1"
   stroke="none"
   d="m 596.59965,36.92031 c -0.27942,-8.71534 -0.54307,-17.4313 -0.84827,-26.145581 -0.0849,-2.424741 -0.29272,-4.844547 -0.45329,-7.413559 22.21778,3.260686 38.55876,15.722548 50.93418,35.59681 -0.5761,1.14287 -1.37384,2.81563 -2.25046,4.43949 -0.89406,1.65617 -1.86567,3.26434 -3.00888,5.25068 -8.83233,-4.58129 -16.11371,-0.77481 -23.62848,4.26865 -2.69248,1.80705 -6.99896,0.85547 -10.98545,0.65716 -1.62347,-3.39269 -2.56655,-6.45508 -4.11067,-9.11765 -1.57535,-2.71656 -3.74129,-5.04028 -5.64868,-7.536 z"
   id="path385"
   style="stroke-width:1.01626" />
<path
   fill="#242a2c"
   opacity="1"
   stroke="none"
   d="m 483.65288,199.28783 c 0.045,-1.98653 0.35003,-4.02865 0.86595,-6.00771 0.99859,-3.8311 1.20806,-6.89869 -2.29822,-10.03637 -2.41738,-2.16322 -3.307,-6.28484 -4.89122,-9.93338 5.08613,0.12163 8.29046,-2.82646 11.56401,-6.6616 16.80195,-19.68408 33.8289,-39.14811 50.81395,-58.65238 3.55237,-4.07928 7.25914,-8.00438 11.62166,-12.05173 1.56888,0.36715 2.8497,0.54456 3.18336,1.24183 2.71244,5.66956 0.65695,12.73893 -4.70404,16.32873 -0.71509,-1.56787 -1.43653,-3.1498 -2.61636,-5.73657 -6.81059,8.71778 -13.05371,16.70912 -19.29682,24.70047 0.49536,0.15156 0.99067,0.30313 1.48604,0.45471 1.07464,2.35125 2.14934,4.70253 3.22399,7.05378 -6.59698,6.66739 -12.64405,14.14756 -19.92765,19.80003 -9.48011,7.35713 -17.20945,15.01702 -16.02284,28.83802 0.0637,0.742 -0.23339,1.88841 -0.73841,2.2589 -3.91726,2.87351 -7.92694,5.60246 -12.2634,8.40327 z"
   id="path387"
   style="stroke-width:1.01626" />
<path
   fill="#1b1f22"
   opacity="1"
   stroke="none"
   d="m 687.67375,56.86527 c 4.99718,5.55781 9.82198,10.77651 14.4689,16.171 3.45096,4.00621 3.49483,8.5594 0.7043,12.93147 -2.75631,4.31866 -5.85114,8.38947 -8.99619,12.85085 -14.6052,-14.02914 -29.12528,-27.97653 -43.57087,-41.85237 3.01715,-3.00132 5.84215,-5.84819 8.70509,-8.65053 3.96521,-3.88119 8.2856,-5.50279 13.25904,-2.12577 5.07492,3.44592 10.12184,6.93916 15.42973,10.67535 z"
   id="path389"
   style="stroke-width:1.01626" />
<path
   fill="#1c2225"
   opacity="1"
   stroke="none"
   d="m 532.90371,139.79355 c -1.37318,-2.15719 -2.44788,-4.50847 -3.52252,-6.85972 -0.49537,-0.15158 -0.99068,-0.30315 -1.48604,-0.45471 6.24311,-7.99135 12.48623,-15.98269 19.29682,-24.70047 1.17983,2.58677 1.90127,4.1687 2.61636,5.73657 5.36099,-3.5898 7.41648,-10.65917 4.70404,-16.32873 -0.33366,-0.69727 -1.61448,-0.87468 -2.91251,-1.38883 8.1423,-13.33198 19.83121,-21.79599 34.61549,-25.48625 -1.94736,5.31936 1.00734,9.29542 2.26628,13.56411 -18.63975,12.86488 -31.78935,32.12051 -48.69433,46.94435 -1.43198,-1.19731 -2.40785,-1.80314 -3.38365,-2.40897 -0.2615,0.56511 -0.52294,1.13023 -0.78444,1.69535 1.30252,0.32847 2.60504,0.65697 3.90755,0.98543 -2.10823,2.83595 -4.2164,5.67187 -6.62305,8.70187 z"
   id="path391"
   style="stroke-width:1.01626" />
<path
   fill="#1b1f22"
   opacity="1"
   stroke="none"
   d="m 446.4379,263.29545 c 1.28508,2.35188 3.20197,4.88145 3.05854,7.26903 -0.41796,6.95749 -4.42947,8.87427 -10.5689,5.6592 -1.65778,1.6144 -3.31503,3.23103 -4.64865,4.53198 0.90346,1.74215 1.88802,3.54798 2.78181,5.40391 0.43435,0.9019 0.54164,2.01285 1.06526,2.83256 4.12884,6.46382 4.12186,6.79846 -1.43779,12.89539 -6.01875,-0.21812 -8.26135,5.37262 -12.27622,7.67784 -4.06398,-3.86317 -7.05899,-3.32479 -10.63243,1.39018 -2.61424,3.44931 -5.37052,6.89504 -8.56715,9.679 -2.41722,2.10519 -5.54013,4.07923 -8.5752,0.14504 -0.38065,-0.49348 -2.55382,0.28238 -3.71687,0.87465 -1.62179,0.82584 -3.07433,2.03291 -4.78693,2.8149 7.24497,-7.82826 14.76448,-15.29955 22.09045,-22.98246 12.03426,-12.62058 23.94299,-25.37845 36.21408,-38.19122 z"
   id="path393"
   style="stroke-width:1.01626" />
<path
   fill="#1f2528"
   opacity="1"
   stroke="none"
   d="m 270.12146,438.88222 c -3.15197,-3.48055 -3.30292,-7.68607 -1.92483,-12.38464 1.28439,-1.09102 1.94341,-1.90722 2.60243,-2.72343 0,0 0.15578,0.21456 0.38146,0.22102 0.79031,-0.29147 1.35493,-0.58942 1.91952,-0.88733 4.10313,0.95393 7.60959,5.31667 7.82299,9.7333 0.40457,8.37381 3.79173,11.94808 11.62221,12.37267 1.58373,0.0859 3.15521,0.43144 4.95519,0.68924 0.50739,-1.16362 0.74305,-2.50624 1.49731,-3.22134 0.85225,-0.80796 2.21051,-1.50047 3.27281,-1.39182 0.77532,0.0792 1.43536,1.52981 2.12561,2.38864 0.0881,0.1096 0.0285,0.34298 0.0701,0.50961 0.79669,3.19111 0.6488,7.84833 2.58406,9.28464 5.00542,3.71494 10.9052,6.15978 17.73155,3.44251 1.17734,0.49569 1.98041,1.1649 3.02983,2.03568 -1.83124,1.15649 -3.85008,2.68991 -5.99904,2.93981 -3.86185,0.44902 -7.84036,-0.22878 -11.69586,0.25023 -2.68841,0.33398 -5.24837,1.82652 -7.8748,2.77247 -1.17423,0.4229 -2.66177,1.45459 -3.50665,1.04004 -3.56085,-1.74725 -6.92197,-3.95759 -10.37968,-5.95173 -1.37306,-0.79188 -2.79482,-2.0358 -4.21625,-2.07123 -3.21788,-0.0803 -4.23124,-1.59435 -4.31011,-4.83626 -0.0321,-1.31649 -1.21241,-2.60092 -2.31642,-4.78092 -1.59701,3.94693 -2.69266,6.65483 -4.15304,9.43076 -0.45815,-3.28113 -0.55156,-6.63034 -0.50574,-10.88844 0.16177,-1.8603 0.1843,-2.8117 0.56537,-3.81092 1.01027,-1.52829 2.42841,-3.25581 2.10104,-4.42058 -0.33603,-1.19549 -2.37815,-1.84094 -3.67357,-2.72715 -0.57517,0.99508 -1.15034,1.99012 -1.72554,2.98517 z"
   id="path395"
   style="stroke-width:1.01626" />
<path
   fill="#1f2528"
   opacity="1"
   stroke="none"
   d="m 318.57976,437.60146 c -2.52912,2.0495 -4.81413,3.84326 -6.83845,5.43238 -2.47129,-1.57964 -4.5963,-2.58433 -6.28558,-4.13389 -1.26599,-1.16128 -2.66536,-2.96085 -2.79429,-4.58643 -0.37186,-4.69044 -1.34632,-9.9619 0.18437,-14.02476 1.81376,-4.81404 1.49158,-12.1627 8.691,-13.21587 0.3012,-0.0441 0.63486,-0.25103 0.85027,-0.48915 3.70905,-4.10004 6.22133,-5.4542 8.83134,1.66097 1.06674,2.90805 6.03461,4.1746 9.54578,6.33484 1.08908,5.93257 -0.64551,10.02512 -5.47999,13.427 -2.83807,1.99699 -4.3512,6.15384 -6.70445,9.59491 z"
   id="path397"
   style="stroke-width:1.01626" />
<path
   fill="#1d2429"
   opacity="1"
   stroke="none"
   d="m 497.10456,60.89501 c -0.90904,-1.2318 -2.47342,-2.73385 -2.95686,-4.56356 -0.54769,-2.07258 -0.1264,-4.43889 -0.1264,-7.14711 -1.49191,0.20594 -2.54462,0.28057 -3.5688,0.50493 -4.2276,0.9262 -5.81044,-1.29566 -6.28225,-5.50583 -0.82322,-7.34608 -1.73513,-14.69501 -3.03418,-21.95565 -0.32443,-1.8136 -1.99639,-3.720617 -3.52522,-4.835928 -2.7315,-1.99263 -3.21452,-4.373519 -0.81548,-6.326381 4.08436,-3.324799 4.34874,-5.894687 -0.22488,-8.70122 -0.25892,-0.15886 -0.16183,-0.983292 -0.24178,-1.848999 6.28537,-0.351044 12.58207,-0.351044 19.44948,-0.351044 0,1.912413 0.004,3.753724 -6.6e-4,5.595005 -0.0426,16.418237 -0.1273,32.836627 -0.0738,49.254497 0.006,1.82363 0.79624,3.6443 1.40087,5.88129 m -8.93026,-47.283585 c 1.48472,3.560738 2.9695,7.121475 4.45422,10.682225 0.36363,-0.17246 0.72726,-0.34492 1.09089,-0.51739 -0.19923,-4.528419 -0.3984,-9.05685 -0.66301,-15.072755 -2.41049,2.088893 -3.58384,3.105725 -4.8821,4.90792 z"
   id="path399"
   style="stroke-width:1.01626" />
<path
   fill="#1b1f22"
   opacity="1"
   stroke="none"
   d="m 99.79356,424.00056 c 1.3341,1.26488 2.19613,2.43199 3.11261,3.54781 1.27969,1.55806 3.45813,2.92115 3.73246,4.64507 0.66514,4.17979 1.25143,6.61789 6.03129,4.17707 0.85387,-0.436 3.43361,3.00484 5.22719,5.02851 -11.33619,0.25596 -22.68332,0.0421 -34.02992,0.0699 -4.52763,0.0112 -8.19297,-2.22782 -8.69732,-6.51957 -0.32923,-2.80155 2.57155,-6.03851 4.72979,-8.98052 1.35744,-0.53671 2.01053,-1.17331 2.66363,-1.8099 5.59417,-0.0931 11.18836,-0.18606 17.23027,-0.15843 z"
   id="path401"
   style="stroke-width:1.01626" />
<path
   fill="#14171b"
   opacity="1"
   stroke="none"
   d="m 596.39,37.25537 c 2.11704,2.16066 4.28298,4.48438 5.85833,7.20094 1.54412,2.66257 2.4872,5.72496 3.69957,8.99987 -10.20101,1.38397 -20.4076,2.37994 -31.00629,3.35663 -1.05049,-2.82798 -2.08953,-5.60594 -2.28983,-8.45162 -0.45282,-6.43097 0.96777,-8.30181 6.7341,-10.38317 0.70077,-0.25296 1.24103,-1.01604 2.0076,-1.91429 4.62013,3.82471 11.32954,4.69499 14.99652,1.19164 z"
   id="path403"
   style="stroke-width:1.01626" />
<path
   fill="#202529"
   opacity="1"
   stroke="none"
   d="m 5.7757297,306.45385 c 7.8080673,-8.05066 16.9114623,-7.72556 26.2623463,-5.76153 2.609859,0.54817 3.735478,2.42571 3.440857,5.38751 -0.422073,4.24322 -0.607798,9.48444 -4.921877,10.48198 -5.803072,1.34188 -12.046459,1.56239 -17.975145,0.92435 -6.1268053,-0.6594 -7.6392573,-3.82527 -6.8061813,-11.03231 z"
   id="path405"
   style="stroke-width:1.01626" />
<path
   fill="#1f2528"
   opacity="1"
   stroke="none"
   d="m 375.91091,201.67194 c -0.31511,5.23222 -1.26565,10.28841 -1.611,15.39154 -0.247,3.65005 -1.08307,5.695 -4.89026,6.36536 -4.33504,0.76334 -8.47466,2.72397 -12.78261,3.7705 -2.24665,0.54577 -5.20573,1.3198 -5.87862,-2.54045 -0.53921,-3.09318 0.0602,-5.51294 3.75885,-5.83823 1.0911,-0.096 2.85614,-1.32387 2.99429,-2.25688 0.70382,-4.75329 3.40023,-6.59806 7.80776,-6.39277 -0.74224,-5.11729 -4.13639,-3.39568 -6.5134,-3.68862 -2.57548,-0.31743 -5.17911,-0.37283 -7.77048,-0.54253 -0.006,-0.62215 -0.0118,-1.2443 -0.0178,-1.86646 4.06218,-0.62208 8.12437,-1.24417 12.2954,-2.26294 4.14966,-0.36259 8.19051,-0.32851 12.60784,-0.13852 z"
   id="path407"
   style="stroke-width:1.01626" />
<path
   fill="#202529"
   opacity="1"
   stroke="none"
   d="m 25.76117,372.90017 c -0.505226,10.37469 -8.80549,14.89094 -18.9748613,10.76004 -0.760869,-0.30906 -1.666288,-0.51813 -2.202901,-1.09529 -1.712372,-1.84191 -4.48350302,-3.76986 -4.57979302,-5.78858 -0.102463,-2.14801 1.99289102,-5.82184 3.80721302,-6.40419 5.332249,-1.7115 10.9851033,-2.70219 16.5476843,-2.91434 1.73591,-0.0662 3.584036,3.24371 5.402658,5.44236 z"
   id="path409"
   style="stroke-width:1.01626" />
<path
   fill="#404549"
   opacity="1"
   stroke="none"
   d="m 278.02174,714.29028 c 0,0 0.057,0.49647 0.0279,0.7447 -9.8542,-0.18045 -19.67936,-0.60912 -30.07113,-1.52367 -1.4068,-3.1281 -2.24698,-5.77045 -2.87019,-7.73038 2.54406,-1.75033 4.00085,-2.75263 5.45767,-3.75493 5.85599,-0.26088 11.71199,-0.52182 18.04687,-0.22327 0.29284,7.25157 4.414,10.24474 9.40885,12.48755 z"
   id="path411"
   style="stroke-width:1.01626" />
<path
   fill="#7f7f7d"
   opacity="1"
   stroke="none"
   d="m 571.59182,699.69806 c 1.47105,0.26165 3.49825,-0.0372 4.31104,0.88778 2.65028,3.01628 5.48703,3.08092 9.15376,2.91376 5.77856,-0.26358 11.6466,0.63049 17.39956,1.57452 1.45829,0.23923 2.62482,2.51877 3.92542,3.86078 -1.50594,1.11085 -2.88284,2.78448 -4.54335,3.22118 -4.07453,1.07136 -8.26708,1.67882 -12.43889,2.24878 -1.56533,0.21396 -3.88106,0.49288 -4.69636,-0.43078 -4.17451,-4.7292 -7.81583,-1.9306 -11.95425,-0.18533 -0.0306,-5.10972 2.68745,-9.82394 -1.15693,-14.09069 z"
   id="path413"
   style="stroke-width:1.01626" />
<path
   fill="#242a2c"
   opacity="1"
   stroke="none"
   d="m 571.13799,699.61358 c 4.29821,4.35123 1.58013,9.06545 1.26056,14.04229 -3.88808,1.11932 -7.77849,1.81253 -12.17008,2.23467 -0.72174,-0.0513 -0.9423,0.1683 -1.16293,0.38798 -0.5526,0.0948 -1.10515,0.18955 -1.93267,0.20868 -5.37574,-3.93403 -6.24402,-9.61737 -6.07554,-16.37696 0.0779,-0.66273 -0.0541,-1.09602 -0.0541,-1.09602 6.56035,0.17158 13.12065,0.34323 20.13478,0.59936 z"
   id="path415"
   style="stroke-width:1.01626" />
<path
   fill="#21282a"
   opacity="1"
   stroke="none"
   d="m 399.38359,287.60271 c -4.0665,-3.2074 -3.71273,-21.09524 0.34586,-22.22152 6.0818,-1.68782 12.44179,-2.87187 18.45239,1.95049 -2.4341,3.23619 -5.1549,6.347 -7.96941,9.3573 -3.45528,3.69561 -6.98886,7.30731 -10.82884,10.91373 z"
   id="path417"
   style="stroke-width:1.01626" />
<path
   fill="#404549"
   opacity="1"
   stroke="none"
   d="m 277.44111,367.37038 c -2.40976,0.031 -4.37376,0.0493 -6.75763,0.0618 -0.19165,-7.92068 -0.0153,-15.83801 0.2873,-23.74979 0.14504,-3.79345 0.5289,-7.57644 1.07161,-11.69085 0.51872,3.19293 0.77038,6.7125 1.02022,11.19612 -0.003,2.53284 -0.005,4.1017 -0.006,5.67054 -0.004,10.0394 0.65719,10.60041 9.99005,8.47474 0.15736,-0.0359 0.30036,-0.14603 0.45781,-0.17861 5.29347,-1.09503 13.89973,3.22946 16.06211,8.0663 -7.2266,0.71227 -14.45317,1.42455 -22.12554,2.14973 z"
   id="path419"
   style="stroke-width:1.01626" />
<path
   fill="#404549"
   opacity="1"
   stroke="none"
   d="m 501.29045,128.65107 c -4.12008,-0.54405 -7.93413,-1.22457 -12.01184,-2.39452 0.10488,-0.93132 0.47337,-1.3732 1.20074,-1.85921 4.72699,-4.32745 3.56197,-10.23013 4.32015,-15.56995 4.26225,1.06929 8.50437,2.24611 12.79473,3.16485 2.32543,0.49797 4.73298,0.55615 7.52903,0.81635 -4.22521,5.23779 -8.87596,10.4719 -13.83281,15.84248 z"
   id="path421"
   style="stroke-width:1.01626" />
<path
   fill="#242a2c"
   opacity="1"
   stroke="none"
   d="m 543.13404,698.58881 c -1.99429,0.3736 -4.02155,0.61099 -5.97479,1.15399 -2.68637,0.74688 -5.26527,2.08016 -7.9816,2.53175 -6.07962,1.0109 -12.12789,1.0907 -17.65969,5.30583 -1.72296,1.31279 -6.97085,-0.71709 -6.86351,-6.32713 0.0321,-1.68023 -1.7461,-3.40021 -2.75463,-5.4855 8.12389,-0.32443 16.30736,-0.26531 25.00903,0.2899 1.61754,0.65553 2.71693,0.81498 3.81633,0.9745 3.83239,0.10701 7.66473,0.21395 11.93914,0.67062 0.45126,0.52856 0.46049,0.70727 0.46972,0.88604 z"
   id="path423"
   style="stroke-width:1.01626" />
<path
   fill="#1b1f22"
   opacity="1"
   stroke="none"
   d="m 302.52518,127.70291 c -1.45502,0.65465 -2.86324,1.63256 -4.37664,1.88372 -1.97571,0.32786 -4.03461,0.0802 -6.05773,0.0802 -0.17298,0.56192 -0.34595,1.12385 -0.51895,1.68578 1.06376,0.84532 2.1536,1.65591 3.18527,2.54397 1.61816,1.3929 3.57754,2.58432 4.61973,4.3765 0.46651,0.80225 -0.6889,3.90965 -1.54238,4.14204 -2.66578,0.72589 -6.27653,1.78932 -8.15182,0.47719 -2.57516,-1.80178 -5.21852,-5.53871 -5.46764,-8.66273 -0.45866,-5.75164 -3.02779,-6.14278 -6.07084,-5.55758 -2.50641,3.13248 -4.4959,5.61889 -6.8092,8.25425 0.22062,-3.13567 0.76507,-6.42032 1.94862,-9.85238 2.27146,-0.19189 3.90386,-0.23639 5.98461,-0.14309 8.05119,0.34925 15.6541,0.56065 23.25697,0.77209 z"
   id="path425"
   style="stroke-width:1.01626" />

<path
   fill="#7f7f7d"
   opacity="1"
   stroke="none"
   d="m 250.13994,701.92207 c -1.03074,1.10623 -2.48753,2.10853 -5.03159,3.85886 0.62321,1.95993 1.46339,4.60228 2.46623,7.56322 -6.64187,0.0628 -13.4521,-0.0971 -20.24455,-0.55757 -0.96143,-0.0652 -1.83628,-1.59513 -2.75116,-2.44709 1.33767,-1.5765 2.46179,-4.17161 4.0499,-4.55342 6.95503,-1.67267 14.04444,-2.70398 21.51117,-3.864 z"
   id="path429"
   style="stroke-width:1.01626" />
<path
   fill="#292f32"
   opacity="1"
   stroke="none"
   d="m 278.01784,713.88767 c -4.99095,-1.8402 -9.11211,-4.83337 -8.96377,-11.964 4.64581,-1.32306 9.32929,-2.20751 14.65878,-2.83678 1.7772,0.33919 2.9084,0.42309 4.03965,0.50705 -0.7221,2.60313 -1.18055,5.34357 -2.27434,7.75316 -0.57116,1.25811 -2.26472,1.9277 -3.44318,2.8748 -1.34507,1.08093 -2.68106,2.1749 -4.01714,3.66577 z"
   id="path431"
   style="stroke-width:1.01626" />
<path
   fill="#14171b"
   opacity="1"
   stroke="none"
   d="m 526.94037,0.387688 c -1.13793,1.076628 -2.68642,2.840707 -4.32728,2.945406 -7.96494,0.508235 -8.07228,0.352264 -7.95175,8.934486 0.19275,13.72514 0.64304,27.4472 0.72174,41.17228 0.0174,3.04176 -1.05972,6.09071 -1.68077,9.55449 -0.65264,0.15044 -1.25739,-0.11726 -2.03721,-0.69466 0.19281,-2.47226 0.89256,-4.63775 0.8759,-6.79692 -0.12616,-16.37947 -0.3951,-32.75766 -0.61206,-49.136367 -0.0248,-1.865216 -0.003,-3.731122 -0.003,-6.056099 5.23495,0 9.89828,0 15.01485,0.07739 z"
   id="path433"
   style="stroke-width:1.01626" />

<path
   fill="#292f32"
   opacity="1"
   stroke="none"
   d="m 341.60562,444.56785 c -4.41832,1.58051 -6.53524,-1.7895 -7.38543,-4.50127 -0.96271,-3.07072 -0.13003,-6.78714 -0.078,-10.22278 0.89531,-0.46161 1.79063,-0.92321 2.68595,-1.38485 4.03746,4.37577 8.07492,8.75151 12.11238,13.12728 -0.35463,0.77429 -0.7093,1.54862 -1.06394,2.3229 -1.96322,0.21537 -3.92643,0.43074 -6.27099,0.65872 z"
   id="path437"
   style="stroke-width:1.01626" />
<path
   fill="#262c2e"
   opacity="1"
   stroke="none"
   d="m 588.77975,83.69412 c -1.55706,-4.08729 -4.51176,-8.06335 -2.12975,-13.38121 4.24164,-0.97831 8.34176,-1.51126 13.32162,-2.15861 -4.12452,5.81495 -7.50914,10.58668 -11.19187,15.53982 z"
   id="path439"
   style="stroke-width:1.01626" />

<path
   fill="#14171b"
   opacity="1"
   stroke="none"
   d="m 471.17246,0.189742 c 0.26684,17.880834 0.30358,35.718258 0.22416,53.555078 -0.008,1.75899 -0.72696,3.51437 -1.50438,5.36469 -0.37975,-18.8658 -0.37106,-37.8249 -0.111,-57.374663 0.45557,-0.786029 0.59372,-1.02517 0.66582,-1.308106 0.15422,-0.09352 0.30849,-0.187049 0.7254,-0.236999 z"
   id="path443"
   style="stroke-width:1.01626" />
<path
   fill="#292f32"
   opacity="1"
   stroke="none"
   d="m 262.89912,425.10826 c -2.42508,0.60014 -5.13956,1.21626 -7.82811,1.10604 -9.24136,-0.37877 -18.4737,-1.01173 -27.95735,-1.87178 11.67072,-0.0664 23.58931,0.19122 35.78546,0.76574 z"
   id="path445"
   style="stroke-width:1.01626" />


<path
   fill="#dedfe0"
   opacity="1"
   stroke="none"
   d="m 658.51101,185.39517 c -0.39156,-0.46083 -0.45042,-0.97283 -0.49093,-1.87452 3.31467,-4.57813 6.56263,-8.81149 9.91974,-12.94321 3.93392,-4.84173 7.96278,-9.59499 12.30846,-14.4885 0.358,-0.10191 0.51479,0.0776 0.51479,0.0776 -2.55739,3.90013 -4.90704,7.98263 -7.71939,11.65902 -4.57404,5.97924 -9.45092,11.69276 -14.53267,17.56955 z"
   id="path451"
   style="stroke-width:1.01626" />
<path
   fill="#14171b"
   opacity="1"
   stroke="none"
   d="m 553.55148,0.638223 c 0.61506,0.730438 1.29659,1.820722 1.303,2.915508 0.0735,12.609271 0.0642,25.219359 0.003,37.828819 -0.005,0.95864 -0.56676,1.91419 -1.28526,3.08643 -0.36633,-14.34612 -0.3173,-28.907469 -0.0212,-43.830757 z"
   id="path453"
   style="stroke-width:1.01626" />
<path
   fill="#404549"
   opacity="1"
   stroke="none"
   d="m 88.12889,367.08653 c -3.8807,0.90164 -8.0964,2.05113 -12.3549,2.27763 -5.99625,0.31895 -12.02422,-0.0464 -18.34948,-0.38705 1.66482,-0.83433 3.63067,-1.83955 5.61788,-1.89058 8.24061,-0.21159 16.48767,-0.13494 25.0865,0 z"
   id="path455"
   style="stroke-width:1.01626" />

<path
   fill="#404549"
   opacity="1"
   stroke="none"
   d="m 307.38064,242.97174 c -11.69173,0.33785 -23.71913,0.37556 -36.16071,0.41918 -0.41628,-0.89237 -0.41838,-1.79072 -0.28682,-2.99223 2.2061,0.0304 4.26926,0.54271 6.35268,0.66731 9.91671,0.593 19.83894,1.08054 30.09485,1.90574 z"
   id="path459"
   style="stroke-width:1.01626" />
<path
   fill="#404549"
   opacity="1"
   stroke="none"
   d="m 150.01055,367.08229 c -4.19114,0.88666 -8.70829,2.04606 -13.25644,2.20831 -3.80161,0.1356 -7.63952,-0.89545 -11.73078,-1.73285 8.03632,-0.42684 16.34204,-0.5307 24.98722,-0.47546 z"
   id="path461"
   style="stroke-width:1.01626" />
<path
   fill="#242a2c"
   opacity="1"
   stroke="none"
   d="m 339.84343,383.14188 c -0.31688,-5.72471 2.86908,-9.6781 6.38355,-13.66438 -2.08651,7.14217 -4.53892,14.29831 -7.1958,21.75989 -0.51208,0.19402 -0.75938,-0.004 -0.94512,-0.80003 0.58665,-2.77312 1.17201,-5.0343 1.75737,-7.29548 z"
   id="path463"
   style="stroke-width:1.01626" />
<path
   fill="#dedfe0"
   opacity="1"
   stroke="none"
   d="m 705.03657,107.49227 c 1.79867,-2.40669 3.75963,-4.69629 5.36237,-7.24434 3.38324,-5.37883 6.57905,-10.89289 9.60106,-15.93338 -0.34199,10.14957 -6.93807,16.89603 -14.47256,23.28412 -0.38304,1.5e-4 -0.49087,-0.1064 -0.49087,-0.1064 z"
   id="path465"
   style="stroke-width:1.01626" />
<path
   fill="#404549"
   opacity="1"
   stroke="none"
   d="m 211.88307,367.0957 c -3.06167,0.89022 -6.44249,2.14397 -9.84007,2.1984 -3.97741,0.0637 -7.96941,-0.91708 -12.22197,-1.77184 7.06722,-0.41591 14.40134,-0.50475 22.06204,-0.42656 z"
   id="path467"
   style="stroke-width:1.01626" />
<path
   fill="#1b1f22"
   opacity="1"
   stroke="none"
   d="m 270.91165,142.66747 c 3.70881,4.20438 2.66686,9.06582 0.47607,14.17411 -0.42896,-4.45622 -0.51515,-9.11467 -0.47607,-14.17411 z"
   id="path469"
   style="stroke-width:1.01626" />
<path
   fill="#21282a"
   opacity="1"
   stroke="none"
   d="m 321.27398,450.89099 c -1.62718,1.25098 -3.28236,2.15298 -4.93748,3.05496 -0.32428,-2.3318 -0.72974,-4.65938 -0.83544,-7.00248 -0.01,-0.21247 1.90921,-0.5247 3.28968,-0.74614 1.05654,1.47784 1.75593,2.91123 2.48324,4.69366 z"
   id="path471"
   style="stroke-width:1.01626" />

<path
   fill="#7f7f7d"
   opacity="1"
   stroke="none"
   d="m 271.09182,295.12481 c 0.67148,0.25174 1.12223,0.81923 1.83169,1.89702 1.17245,0.5095 2.08617,0.50867 2.99991,0.50779 2.39257,0.0552 4.78513,0.11038 7.62305,0.51049 0.36536,0.86615 0.28538,1.38737 0.2054,1.90864 -4.25099,0.36686 -8.50197,0.73376 -13.14073,1.16102 -0.17187,-1.84948 0.044,-3.75934 0.48068,-5.98496 z"
   id="path475"
   style="stroke-width:1.01626" />
<path
   fill="#292f32"
   opacity="1"
   stroke="none"
   d="m 247.87959,443.24936 c 1.80957,-4.42 4.24679,-4.60125 8.36651,-0.4211 -2.56718,0.41911 -5.29248,0.48771 -8.36651,0.4211 z"
   id="path477"
   style="stroke-width:1.01626" />
<path
   fill="#292f32"
   opacity="1"
   stroke="none"
   d="m 584.46422,242.35665 c -1.57475,-1.28738 -2.99588,-2.63953 -4.11565,-4.23436 -0.21973,-0.31297 0.726,-1.56453 1.5054,-2.45863 2.05339,1.17793 3.73554,2.43126 5.66995,3.87247 -1.13841,1.08566 -1.96948,1.87824 -3.0597,2.82052 z"
   id="path479"
   style="stroke-width:1.01626" />
<path
   fill="#292f32"
   opacity="1"
   stroke="none"
   d="m 272.15963,397.26024 c 0.39476,4.28359 0.53885,8.89345 0.4389,13.83398 -0.39254,-4.28209 -0.54106,-8.89492 -0.4389,-13.83398 z"
   id="path481"
   style="stroke-width:1.01626" />
<path
   fill="#292f32"
   opacity="1"
   stroke="none"
   d="m 332.52034,695.29965 c -3.43407,4.34526 -7.81496,2.29071 -12.22073,0.87623 3.85373,-0.59454 7.81517,-0.79444 12.22073,-0.87623 z"
   id="path483"
   style="stroke-width:1.01626" />
<path
   fill="#404549"
   opacity="1"
   stroke="none"
   d="m 253.07833,368.41078 c -3.78825,0.0342 -7.85319,-0.22576 -12.17289,-0.78941 3.79559,-0.0373 7.84591,0.22897 12.17289,0.78941 z"
   id="path485"
   style="stroke-width:1.01626" />

<path
   fill="#14171b"
   opacity="1"
   stroke="none"
   d="m 427.53842,27.93361 c 0.40951,4.37698 0.74048,9.2131 0.7287,14.32474 -0.49755,-4.43818 -0.6524,-9.15188 -0.7287,-14.32474 z"
   id="path489"
   style="stroke-width:1.01626" />
<path
   fill="#7f7f7d"
   opacity="1"
   stroke="none"
   d="m 273.10727,270.2256 c -0.42656,1.68254 -0.90728,2.99673 -1.69803,4.44851 -0.50811,-2.82566 -0.70613,-5.78894 -0.8732,-9.1662 0.85962,1.17378 1.68838,2.76159 2.57123,4.71769 z"
   id="path491"
   style="stroke-width:1.01626" />

<path
   fill="#dedfe0"
   opacity="1"
   stroke="none"
   d="m 684.38155,150.58532 c 1.78434,-2.38809 3.56868,-4.77616 5.69045,-7.20316 0.33732,-0.0389 0.35362,-0.0257 0.35362,-0.0257 -1.68484,2.46248 -3.36969,4.92493 -5.46689,7.38348 -0.41236,-0.004 -0.57718,-0.15468 -0.57718,-0.1547 z"
   id="path495"
   style="stroke-width:1.01626" />
<path
   fill="#7f7f7d"
   opacity="1"
   stroke="none"
   d="m 543.5226,698.63478 c -0.39779,-0.22474 -0.40702,-0.40345 -0.41152,-0.85074 2.46743,0.0484 4.93011,0.36538 7.64243,0.95621 0.2497,0.27397 0.38173,0.70726 0.31281,0.92308 -2.43104,-0.18372 -4.7931,-0.58318 -7.54372,-1.02855 z"
   id="path497"
   style="stroke-width:1.01626" />
<path
   fill="#292f32"
   opacity="1"
   stroke="none"
   d="m 224.66131,423.86241 c -2.14323,0.37373 -4.62255,0.59379 -7.35552,0.4937 2.17068,-0.42915 4.59504,-0.53825 7.35552,-0.4937 z"
   id="path499"
   style="stroke-width:1.01626" />
<path
   fill="#1b1f22"
   opacity="1"
   stroke="none"
   d="m 270.93284,175.19203 c 3.21023,0.96608 2.62041,2.80973 0.45701,4.91417 -0.43319,-1.48559 -0.50694,-3.04466 -0.45701,-4.91417 z"
   id="path501"
   style="stroke-width:1.01626" />
<path
   fill="#292f32"
   opacity="1"
   stroke="none"
   d="m 272.87394,473.86639 c 0.71659,1.5923 1.30392,3.48084 1.65086,5.65439 -0.75363,-1.59602 -1.26686,-3.47711 -1.65086,-5.65439 z"
   id="path503"
   style="stroke-width:1.01626" />
<path
   fill="#1f2528"
   opacity="1"
   stroke="none"
   d="m 537.18556,31.51729 c -1.10838,1.20873 -2.1328,2.07138 -3.39444,3.1338 -0.77641,-2.82877 -1.02526,-4.98234 2.95781,-4.89051 0.43208,0.46827 0.47637,0.93946 0.43663,1.75671 z"
   id="path505"
   style="stroke-width:1.01626" />
<path
   fill="#dedfe0"
   opacity="1"
   stroke="none"
   d="m 703.34861,115.52085 c -0.54535,-1.52942 -0.91384,-3.3711 -1.28238,-5.2128 0.62657,-0.0299 1.25319,-0.0597 1.87976,-0.0895 -0.14019,1.66335 -0.28038,3.3267 -0.59738,5.30232 z"
   id="path507"
   style="stroke-width:1.01626" />
<path
   fill="#292f32"
   opacity="1"
   stroke="none"
   d="m 375.70324,313.69835 c -0.54499,-1.05426 -0.81075,-2.23116 -1.07647,-3.4081 1.00577,0.0235 2.01158,0.0468 3.3542,0.22168 -0.44161,1.12225 -1.22005,2.093 -2.27773,3.18642 z"
   id="path509"
   style="stroke-width:1.01626" />
<path
   fill="#dedfe0"
   opacity="1"
   stroke="none"
   d="m 684.62867,150.81166 c -1.01747,1.77448 -2.11717,3.47341 -3.54123,5.26362 -0.32437,0.0913 -0.48116,-0.0882 -0.56429,-0.17611 1.05144,-1.70636 2.18596,-3.32484 3.58947,-5.12859 0.26893,-0.18524 0.43375,-0.0345 0.51605,0.0411 z"
   id="path511"
   style="stroke-width:1.01626" />
<path
   fill="#dedfe0"
   opacity="1"
   stroke="none"
   d="m 695.29958,134.91543 c 0.51556,-1.33215 1.03113,-2.6643 1.54663,-3.99645 0.47067,0.26562 0.94135,0.53125 1.41202,0.79689 -0.73972,1.05918 -1.47939,2.11837 -2.57609,3.19864 -0.35703,0.021 -0.38256,9.1e-4 -0.38256,9.2e-4 z"
   id="path513"
   style="stroke-width:1.01626" />
<path
   fill="#14171b"
   opacity="1"
   stroke="none"
   d="m 537.21805,8.357892 c -0.32791,-1.015772 -0.58096,-2.391167 -0.46342,-3.889435 0.4265,1.09469 0.48242,2.312251 0.46342,3.889435 z"
   id="path515"
   style="stroke-width:1.01626" />
<path
   fill="#242a2c"
   opacity="1"
   stroke="none"
   d="m 421.12875,694.21474 c -1.07456,0.19637 -2.3359,0.0631 -3.6534,-0.42244 1.1181,-0.20395 2.29238,-0.0556 3.6534,0.42244 z"
   id="path517"
   style="stroke-width:1.01626" />
<path
   fill="#292f32"
   opacity="1"
   stroke="none"
   d="m 273.061,443.09261 c -0.0225,0.95139 -0.0451,1.90279 -0.13726,3.32738 -0.97592,-0.47586 -1.88224,-1.42488 -2.96308,-2.65372 -0.17457,-0.27981 0.0218,-0.5723 0.48781,-0.65614 1.18154,-0.0617 1.89702,-0.0396 2.61253,-0.0176 z"
   id="path519"
   style="stroke-width:1.01626" />
<path
   fill="#7f7f7d"
   opacity="1"
   stroke="none"
   d="m 287.83653,699.38455 c -1.21528,0.12543 -2.34648,0.0415 -3.71211,-0.30159 0.95172,-0.57907 2.13787,-0.899 3.65112,-0.98914 0.43609,0.55546 0.37541,0.83926 0.061,1.29073 z"
   id="path521"
   style="stroke-width:1.01626" />
<path
   fill="#292f32"
   opacity="1"
   stroke="none"
   d="m 302.14525,697.41878 c -0.77754,0.69816 -1.93463,1.26664 -3.31482,1.27499 -0.22584,-0.74945 -0.22853,-0.93869 -0.23123,-1.12799 1.05552,-0.0922 2.11102,-0.18443 3.54605,-0.147 z"
   id="path523"
   style="stroke-width:1.01626" />
<path
   fill="#292f32"
   opacity="1"
   stroke="none"
   d="m 367.35399,324.36216 c -0.90035,-0.0951 -1.63139,-0.32205 -2.36242,-0.54903 -0.0197,-0.28637 -0.0395,-0.57273 -0.0592,-0.8591 0.93397,-0.24984 1.86794,-0.49968 3.22944,-0.72351 0.0722,0.6839 -0.28311,1.34181 -0.80781,2.13164 z"
   id="path525"
   style="stroke-width:1.01626" />
<path
   fill="#292f32"
   opacity="1"
   stroke="none"
   d="m 370.56416,319.8649 c 0.57892,-1.20425 1.44562,-2.55409 2.6864,-3.88858 -0.55015,1.25795 -1.47438,2.50045 -2.6864,3.88858 z"
   id="path527"
   style="stroke-width:1.01626" />
<path
   fill="#1b1f22"
   opacity="1"
   stroke="none"
   d="m 285.24138,184.21549 c 0.87707,-0.30404 2.13862,-0.50707 3.46745,-0.36642 -0.98279,0.38491 -2.03283,0.42617 -3.46745,0.36642 z"
   id="path529"
   style="stroke-width:1.01626" />
<path
   fill="#292f32"
   opacity="1"
   stroke="none"
   d="m 270.71578,388.85312 c 0.22311,-0.40227 0.45177,-0.42384 1.02445,-0.45921 0.59465,1.18288 0.84527,2.37956 0.88986,3.82472 -0.77365,-0.8293 -1.34123,-1.90706 -1.91431,-3.36551 z"
   id="path531"
   style="stroke-width:1.01626" />
<path
   fill="#dedfe0"
   opacity="1"
   stroke="none"
   d="m 691.37416,141.22815 c 0.51215,-1.02967 1.0243,-2.05937 1.53645,-3.08906 0.40606,0.31334 0.81218,0.62669 1.21825,0.94004 -0.69064,0.70833 -1.38128,1.41667 -2.40264,2.14501 -0.33072,0.02 -0.35212,0.004 -0.35206,0.004 z"
   id="path533"
   style="stroke-width:1.01626" />
<path
   fill="#7f7f7d"
   opacity="1"
   stroke="none"
   d="m 317.21485,696.00352 c -0.62953,0.56015 -1.5792,0.93452 -2.70237,1.06631 0.67847,-0.57915 1.53037,-0.91557 2.70237,-1.06631 z"
   id="path535"
   style="stroke-width:1.01626" />
<path
   fill="#14171b"
   opacity="1"
   stroke="none"
   d="m 427.6405,55.39443 c 0.25029,0.61808 0.37552,1.60943 0.21777,2.67115 -0.30288,-0.71904 -0.32284,-1.50847 -0.21777,-2.67115 z"
   id="path537"
   style="stroke-width:1.01626" />
<path
   fill="#7f7f7d"
   opacity="1"
   stroke="none"
   d="m 298.38643,697.3709 c 0.21547,0.38418 0.21816,0.57342 0.2223,1.04691 -0.85321,0.20008 -1.70789,0.11599 -2.74648,-0.25273 0.64781,-0.51958 1.47962,-0.75432 2.52418,-0.79418 z"
   id="path539"
   style="stroke-width:1.01626" />
<path
   fill="#7f7f7d"
   opacity="1"
   stroke="none"
   d="m 530.52068,696.76543 c -0.8949,0.1072 -1.99429,-0.0523 -3.18269,-0.58717 0.93337,-0.14347 1.95575,0.0886 3.18269,0.58717 z"
   id="path541"
   style="stroke-width:1.01626" />
<path
   fill="#292f32"
   opacity="1"
   stroke="none"
   d="m 270.48755,423.84977 c -0.34751,0.74059 -1.00653,1.55679 -2.04278,2.31838 -0.37727,-0.0546 -0.32054,-0.30338 -0.27834,-0.42316 0.69801,-0.68642 1.35382,-1.253 2.32112,-1.89522 z"
   id="path543"
   style="stroke-width:1.01626" />
<path
   fill="#292f32"
   opacity="1"
   stroke="none"
   d="m 273.07934,422.62999 c -0.54389,0.77576 -1.10851,1.07371 -1.99936,1.28231 0.18703,-1.11875 0.70032,-2.1482 1.46174,-3.41604 0.3377,0.39305 0.42731,1.02445 0.53762,2.13373 z"
   id="path545"
   style="stroke-width:1.01626" />
<path
   fill="#292f32"
   opacity="1"
   stroke="none"
   d="m 398.42124,693.44398 c -0.62633,0.66703 -1.59881,1.28591 -2.96771,1.78751 0.60955,-0.69007 1.61553,-1.26293 2.96771,-1.78751 z"
   id="path547"
   style="stroke-width:1.01626" />
<path
   fill="#dedfe0"
   opacity="1"
   stroke="none"
   d="m 700.77888,124.89037 c 0.0503,-1.07905 0.32251,-1.95374 0.59474,-2.82841 0.30339,0.14559 0.60672,0.29116 0.91006,0.43675 -0.42764,0.86534 -0.85522,1.73069 -1.5048,2.39166 z"
   id="path549"
   style="stroke-width:1.01626" />
<path
   fill="#404549"
   opacity="1"
   stroke="none"
   d="m 271.219,324.55853 c 0.56615,0.54537 1.08585,1.43906 1.37582,2.54163 -0.62726,-0.59189 -1.02478,-1.39259 -1.37582,-2.54163 z"
   id="path551"
   style="stroke-width:1.01626" />
<path
   fill="#dedfe0"
   opacity="1"
   stroke="none"
   d="m 700.09303,127.9519 c -0.39185,0.62365 -0.80253,0.94754 -1.21321,1.2714 -0.11514,-0.2833 -0.35008,-0.80229 -0.32791,-0.81527 0.49028,-0.28575 1.00908,-0.51545 1.54112,-0.45613 z"
   id="path553"
   style="stroke-width:1.01626" />
<path
   fill="#292f32"
   opacity="1"
   stroke="none"
   d="m 82.22964,424.13113 c -0.31945,0.66445 -0.97254,1.30105 -2.00074,1.83352 0.30564,-0.6899 0.98637,-1.27563 2.00074,-1.83352 z"
   id="path555"
   style="stroke-width:1.01626" />
<path
   fill="#1b1f22"
   opacity="1"
   stroke="none"
   d="m 270.89637,182.44014 c 0.45781,0.21625 0.78803,0.64631 1.15235,1.36722 -0.40391,-0.19055 -0.84195,-0.67198 -1.15235,-1.36722 z"
   id="path557"
   style="stroke-width:1.01626" />
<path
   fill="#404549"
   opacity="1"
   stroke="none"
   d="m 51.814966,369.48003 c -0.289001,0.66892 -0.895541,1.29897 -1.854074,1.8437 0.277532,-0.68438 0.907034,-1.28345 1.854074,-1.8437 z"
   id="path559"
   style="stroke-width:1.01626" />

<path
   fill="#14171b"
   opacity="1"
   stroke="none"
   d="m 537.33978,20.96025 c -0.26108,-0.54109 -0.42974,-1.47208 -0.34397,-2.59089 0.31508,0.608448 0.37573,1.40472 0.34397,2.59089 z"
   id="path563"
   style="stroke-width:1.01626" />
<path
   fill="#dedfe0"
   opacity="1"
   stroke="none"
   d="m 695.3368,134.94768 c -0.11904,0.48418 -0.24981,0.95625 -0.38059,1.42831 -0.0262,-0.39638 -0.0524,-0.79273 0.13239,-1.32483 0.21098,-0.13574 0.23651,-0.1156 0.2482,-0.10349 z"
   id="path565"
   style="stroke-width:1.01626" />
<path
   fill="#14171b"
   opacity="1"
   stroke="none"
   d="m 427.46488,22.66887 c 0.30454,0.30515 0.52867,1.00719 0.41716,1.85603 -0.38959,-0.38852 -0.44356,-0.92383 -0.41716,-1.85603 z"
   id="path567"
   style="stroke-width:1.01626" />
<path
   fill="#dedfe0"
   opacity="1"
   stroke="none"
   d="m 690.40153,143.33493 c 0.15643,-0.59317 0.32059,-1.17803 0.7287,-1.93484 0.24387,-0.17194 0.26527,-0.15594 0.27534,-0.14546 -0.15553,0.59493 -0.32108,1.17938 -0.73325,1.93285 -0.2467,0.16905 -0.263,0.15576 -0.27079,0.14745 z"
   id="path569"
   style="stroke-width:1.01626" />
<path
   fill="#14171b"
   opacity="1"
   stroke="none"
   d="m 537.01972,1.838189 c -0.34571,-0.0284 -0.48158,-0.284798 -0.69339,-0.975894 0.25041,-0.0405 0.57682,0.353692 0.69339,0.975894 z"
   id="path571"
   style="stroke-width:1.01626" />
<path
   fill="#1f2528"
   opacity="1"
   stroke="none"
   d="m 470.18916,0.421188 c 0.1858,0.288489 0.0476,0.52763 -0.33066,0.826358 -0.0918,-0.208385 -0.01,-0.520151 0.33066,-0.826358 z"
   id="path573"
   style="stroke-width:1.01626" />
<path
   fill="#dedfe0"
   opacity="1"
   stroke="none"
   d="m 705.19408,107.6566 c -0.11555,0.0488 -0.2808,0.0399 -0.30183,-0.0667 0.14432,-0.0976 0.25215,0.008 0.30183,0.0667 z"
   id="path575"
   style="stroke-width:1.01626" />
<path
   fill="#1f2528"
   opacity="1"
   stroke="none"
   d="m 384.26784,202.836 c -0.24334,0.16421 -0.58767,-0.004 -1.08409,-0.43683 0.22629,-0.14112 0.60472,-0.0186 1.08409,0.43683 z"
   id="path577"
   style="stroke-width:1.01626" />
<path
   fill="#1d2429"
   opacity="1"
   stroke="none"
   d="m 559.28011,716.323 c 0.006,-0.26416 0.22662,-0.48382 0.52354,-0.44024 0.0764,0.26333 -0.30891,0.48473 -0.52354,0.44024 z"
   id="path579"
   style="stroke-width:1.01626" />


<path
   fill="#292f32"
   opacity="1"
   stroke="none"
   d="m 317.22414,107.05863 c -9.14126,0.42775 -18.3246,0.49232 -27.96103,0.63599 -4.42431,-0.0126 -8.39555,-0.10423 -12.81522,-0.29299 1.69911,-0.70446 3.81651,-1.55385 6.00077,-1.86553 3.77078,-0.53806 7.91133,1.30439 10.92153,-3.27334 0.91407,-1.39011 3.87084,-1.29817 5.91596,-1.76468 4.98537,-1.13722 15.43263,2.51454 17.93799,6.56055 z"
   id="path585"
   style="stroke-width:1.01626" />

<path
   fill="#1b1f22"
   opacity="1"
   stroke="none"
   d="m 304.56979,128.04949 c 7.16792,-0.6745 14.41058,-0.96841 22.31224,-1.27237 1.47971,-0.0793 2.30047,-0.14863 3.12119,-0.2179 0,-2e-5 -0.0379,0.23858 0.12329,0.71954 1.68683,0.76924 3.21042,1.29172 4.73844,1.30725 8.86506,0.0901 17.73113,0.0609 26.59741,0.43114 0.35512,0.98782 0.7097,1.6165 1.06431,2.24519 0.28984,-0.86822 0.57972,-1.73644 1.30197,-2.61372 9.45812,-0.0134 18.48518,0.0654 27.50819,-0.10391 1.49902,-0.0281 2.98036,-1.13815 4.46984,-1.7482 13.44589,-0.0856 26.89176,-0.17128 40.79358,-0.18711 0.64997,1.43493 0.84401,2.80004 1.03946,4.16495 -3.24413,3.18016 -6.69818,4.55133 -11.31726,3.26005 -3.61605,-1.01089 -6.12735,1.25488 -7.01146,5.39588 -0.22002,1.0307 -1.36745,1.83427 -2.0886,2.74225 -0.58763,-0.87417 -1.4347,-1.66142 -1.71955,-2.63697 -1.50788,-5.16459 -7.54665,-7.87787 -11.66706,-4.94583 -0.86694,0.6169 -1.49629,2.18064 -1.58602,3.3645 -0.16554,2.18488 0.14969,4.41156 0.31074,7.50798 2.1883,0 4.73445,-0.20317 7.22564,0.10433 0.94,0.11602 1.75284,1.41336 2.62364,2.17219 -0.78509,0.95395 -1.51412,2.67436 -2.36376,2.74561 -10.81697,0.90723 -21.64647,1.75467 -32.48703,2.09055 -1.39614,0.0432 -3.02485,-2.7564 -4.2351,-4.48822 -0.47229,-0.6758 -0.0888,-2.03926 -0.0916,-3.08951 -0.0245,-9.31811 -0.0292,-9.33981 -8.47997,-9.70665 -3.68477,-0.15997 -7.37785,-0.42964 -11.05753,-0.3102 -4.21352,0.13676 -8.43612,1.10763 -12.61947,0.89991 -7.43427,-0.36913 -14.91928,-0.87903 -22.23351,-2.24712 -4.86679,-0.91027 -9.47394,-3.41303 -14.27207,-5.5836 z"
   id="path589"
   style="stroke-width:1.01626" />
<path
   fill="#21282a"
   opacity="1"
   stroke="none"
   d="m 430.43553,198.26531 c 1.0397,0.89911 1.71277,1.91595 2.38588,2.93276 -0.70652,0.29191 -1.41304,0.5838 -2.11956,0.87571 -0.211,-1.23025 -0.42198,-2.4605 -0.26632,-3.80847 z"
   id="path591"
   style="stroke-width:1.01626" />
<path
   fill="#f8fafa"
   opacity="1"
   stroke="none"
   d="m 424.28842,309.89659 c 4.1384,-2.63645 6.381,-8.22719 12.34353,-7.63389 5.57145,6.43583 5.81261,9.43676 0.94911,15.97845 -3.54147,4.76356 -7.43056,9.23915 -11.29634,13.7126 -1.1916,1.37889 -2.75133,2.43988 -4.25667,3.4515 -3.76107,2.52764 -7.17353,1.67863 -10.06814,-1.66236 -2.83783,-3.27536 -2.17898,-7.08987 0.0658,-9.9852 3.72103,-4.79931 8.06036,-9.04879 12.26267,-13.8611 z"
   id="path593"
   style="stroke-width:1.01626" />
<path
   fill="#f8fafa"
   opacity="1"
   stroke="none"
   d="m 481.28262,254.81864 c 2.56487,-8.86147 8.42453,-14.82485 15.35229,-19.76603 4.5829,-3.26868 8.31478,-2.90143 11.43604,0.79609 2.73348,3.23814 3.11401,8.99219 -0.40714,12.42588 -4.53196,4.41942 -9.96019,7.78453 -15.71891,11.7797 -5.80715,2.11489 -8.53212,-0.93342 -10.66228,-5.23564 z"
   id="path595"
   style="stroke-width:1.01626" />
<path
   fill="#f8fafa"
   opacity="1"
   stroke="none"
   d="m 479.97087,267.54634 c -3.10921,6.44851 -5.97844,13.05122 -9.45686,19.26257 -1.23071,2.19763 -3.77851,3.78989 -6.02585,5.03609 -3.19636,1.77258 -6.35007,1.05728 -8.90941,-1.76918 -2.63206,-2.90676 -3.17523,-6.72196 -0.86334,-9.50243 5.3437,-6.42669 11.29427,-12.27456 17.39444,-18.07566 2.88422,1.87057 5.37262,3.45958 7.86102,5.04861 z"
   id="path597"
   style="stroke-width:1.01626" />
<path
   fill="#404549"
   opacity="1"
   stroke="none"
   d="m 480.99253,254.95579 c 2.42025,4.16507 5.14522,7.21338 10.66695,5.30407 -0.71724,1.00444 -1.73705,2.3348 -3.0422,2.8762 -2.33077,0.96671 -4.83368,1.45733 -7.58406,1.7979 -1.78667,-2.03727 -3.25383,-3.72547 -4.72105,-5.41364 1.46344,-1.47578 2.92689,-2.95156 4.68036,-4.56453 z"
   id="path599"
   style="stroke-width:1.01626" />
<path
   fill="#dedfe0"
   opacity="1"
   stroke="none"
   d="m 476.02304,259.70876 c 1.75635,1.49973 3.22351,3.18793 4.65645,5.28361 -0.18173,0.94825 -0.32917,1.48898 -0.59265,2.29184 -2.60437,-1.3269 -5.09277,-2.91591 -7.64758,-4.88492 1.05402,-1.08736 2.17434,-1.79469 3.58378,-2.69053 z"
   id="path601"
   style="stroke-width:1.01626" />
<path
   fill="#242a2c"
   opacity="1"
   stroke="none"
   d="m 299.65221,365.63125 c -2.24794,-5.24744 -10.8542,-9.57193 -16.14767,-8.4769 -0.15745,0.0326 -0.30045,0.14279 -0.45781,0.17861 -9.33286,2.12567 -9.9937,1.56466 -9.99005,-8.47474 5.7e-4,-1.56884 0.003,-3.1377 0.0152,-5.19686 3.39501,-2.72071 6.90645,-4.76078 10.12588,-7.23648 3.03711,-2.33554 14.52177,-2.25219 17.73676,0.20538 1.4805,1.13165 3.38132,2.10076 5.15388,2.24125 6.18948,0.49049 9.39252,2.99149 10.64997,9.66766 1.10686,5.87657 1.21462,11.76808 -2.36449,17.38983 -3.19054,0.72929 -6.31591,1.28623 -9.44876,1.33929 -1.7227,0.0291 -3.45786,-0.7898 -5.27294,-1.63704 z"
   id="path603"
   style="stroke-width:1.01626" />
<path
   fill="#f8fafa"
   opacity="1"
   stroke="none"
   d="m 321.19094,260.51425 c -0.1582,-0.091 -0.31643,-0.18182 -0.68925,-0.7584 1.4041,-5.75335 3.02284,-11.02108 4.64161,-16.28877 7.2797,-0.40139 14.56096,-1.09579 21.83838,-1.05224 2.70642,0.0162 5.84341,1.14901 7.96968,2.90422 1.77943,1.46892 3.76746,5.14378 3.17395,6.84661 -0.96161,2.75889 -3.75868,5.00383 -6.17773,6.87809 -1.46318,1.13361 -3.6751,1.15864 -5.88234,1.86422 -6.88368,0.0721 -13.43561,-0.0381 -20.73626,-0.22458 -1.8785,-0.1072 -3.00825,-0.13818 -4.13804,-0.16915 z"
   id="path605"
   style="stroke-width:1.01626" />
<path
   fill="#dedfe0"
   opacity="1"
   stroke="none"
   d="m 305.83413,298.14013 c 2.62991,-0.18443 5.25981,-0.36885 8.19312,-10e-4 1.02894,4.98887 8.9379,10.29602 14.85422,10.31589 -2.10925,4.19478 -5.75218,5.38936 -10.30884,5.55601 -1.74466,-2.30111 -2.97891,-4.41486 -4.25802,-6.49701 -1.0795,-1.75727 -2.21111,-3.47775 -3.31965,-5.21455 -0.12514,-0.17919 -0.25029,-0.35835 -0.76624,-0.87038 -1.13662,-0.53022 -1.8824,-0.72765 -2.62817,-0.92504 -0.43912,-0.24127 -0.87824,-0.48257 -1.54109,-0.96013 -0.22425,-0.62533 -0.22479,-1.01434 -0.22533,-1.40337 z"
   id="path607"
   style="stroke-width:1.01626" />
<path
   fill="#ebebe9"
   opacity="1"
   stroke="none"
   d="m 329.02202,308.09162 c -6.05687,0.34312 -13.96583,-4.96403 -14.68781,-9.8181 3.58761,-0.5811 7.17169,-0.74518 11.18383,-0.90357 6.22152,3.42255 6.91584,5.65747 3.50398,10.72167 z"
   id="path609"
   style="stroke-width:1.01626" />
<path
   fill="#dedfe0"
   opacity="1"
   stroke="none"
   d="m 324.70511,243.37523 c -1.18058,5.35954 -2.79932,10.62727 -4.45587,16.28016 -0.20088,0.46491 -0.36396,0.54463 -1.15876,0.61628 -1.67179,-0.0854 -2.71187,-0.16263 -3.83045,-0.66975 0.13767,-1.43763 0.55206,-2.44911 0.53564,-3.45253 -0.0699,-4.26992 -0.26749,-8.5375 -0.41844,-12.80591 2.96321,-0.0201 5.92645,-0.0401 9.32788,0.0318 z"
   id="path611"
   style="stroke-width:1.01626" />
<path
   fill="#7f7f7d"
   opacity="1"
   stroke="none"
   d="m 314.94336,243.21445 c 0.58482,4.39744 0.78237,8.66502 0.85231,12.93494 0.0164,1.00342 -0.39797,2.0149 -0.85788,3.55828 -0.69139,0.57575 -1.13899,0.61589 -1.58662,0.65605 -0.92792,-0.22937 -1.85584,-0.45873 -3.31443,-0.81923 0.4636,-3.61339 1.0988,-7.24222 1.31103,-10.8992 0.0797,-1.37333 -0.82285,-2.81204 -1.62071,-4.18492 -0.66613,-0.20976 -0.98918,-0.45558 -1.46584,-0.97772 1.98032,-0.31667 4.11433,-0.35698 6.68214,-0.2682 z"
   id="path613"
   style="stroke-width:1.01626" />
<path
   fill="#292f32"
   opacity="1"
   stroke="none"
   d="m 310.56034,302.68713 c 1.54316,1.34872 2.67477,3.0692 3.75427,4.82647 1.27911,2.08215 2.51336,4.1959 3.90953,6.61224 -5.35107,3.33219 -8.06282,1.49559 -8.75157,-5.94984 -0.15361,-1.66088 0.41634,-3.3985 1.08777,-5.48887 z"
   id="path615"
   style="stroke-width:1.01626" />
<path
   fill="#404549"
   opacity="1"
   stroke="none"
   d="m 305.35977,298.0408 c 0.4749,0.48837 0.47544,0.87737 0.44421,1.55621 -1.15981,0.38268 -2.28791,0.47554 -3.83839,0.61518 -6.04062,-0.0204 -11.65882,-0.0875 -17.74539,-0.20907 -0.38835,-0.57564 -0.30837,-1.09686 -0.227,-2.01828 6.96498,-0.28128 13.92861,-0.16233 21.36657,0.056 z"
   id="path617"
   style="stroke-width:1.01626" />
<path
   fill="#21272a"
   opacity="1"
   stroke="none"
   d="m 307.60468,300.97011 c 0.74164,-0.26909 1.48742,-0.0716 2.32304,0.36513 -0.71311,0.19341 -1.51601,0.14739 -2.32304,-0.36513 z"
   id="path619"
   style="stroke-width:1.01626" />
<path
   fill="#292f32"
   opacity="1"
   stroke="none"
   d="m 326.78421,314.77813 c 0.29944,-10e-4 0.29455,0.52404 0.29219,0.78664 -0.70703,0.20864 -1.41175,0.15462 -2.11644,0.10065 -0.008,-0.18782 -0.0158,-0.37568 -0.0236,-0.56351 0.51616,-0.10752 1.03233,-0.21505 1.8479,-0.32376 z"
   id="path621"
   style="stroke-width:1.01626" />
<path
   fill="#ebebe9"
   opacity="1"
   stroke="none"
   d="m 616.48006,117.80697 c -15.62397,15.9533 -30.97728,31.67297 -46.3539,47.36645 -1.41316,1.44223 -2.87972,2.86721 -4.48749,4.03903 -3.52241,2.56744 -7.5783,2.00449 -10.08031,-1.16507 -3.08266,-3.90526 -0.34972,-6.47628 1.93316,-8.89978 14.39044,-15.27697 28.92192,-30.40205 43.26957,-45.72464 10.06412,-10.74803 19.91068,-21.72982 30.33586,-33.13377 3.1713,2.77412 6.09657,4.75484 8.19245,7.46988 0.76688,0.99339 0.20205,4.35556 -0.83975,5.56913 -7.07299,8.23899 -14.436,16.19236 -21.96959,24.47877 z"
   id="path623"
   style="stroke-width:1.01626" />
<path
   fill="#21282a"
   opacity="1"
   stroke="none"
   d="m 339.45661,383.14888 c -0.19854,2.25418 -0.7839,4.51536 -1.47274,7.0622 -3.26714,-2.751 -2.87423,-5.17613 1.47274,-7.0622 z"
   id="path625"
   style="stroke-width:1.01626" />
<path
   fill="#f8fafa"
   opacity="1"
   stroke="none"
   d="m 390.86973,400.55049 c -3.41075,3.14103 -6.30638,6.83828 -9.99583,8.4465 -4.83946,2.10942 -10.74607,-3.70612 -10.73804,-9.56759 0.01,-6.9532 3.58906,-11.82685 9.07082,-14.24662 2.32052,-1.02424 6.35495,0.37774 8.76625,2.0627 4.28838,2.99673 5.23964,7.74533 2.8968,13.30501 z"
   id="path627"
   style="stroke-width:1.01626" />
<path
   fill="#1d2426"
   opacity="1"
   stroke="none"
   d="m 273.41953,443.04478 c -1.07404,0.0258 -1.78952,0.003 -2.85898,-0.0689 -0.38203,-1.12718 -0.41011,-2.20392 -0.43864,-3.68714 0.57475,-1.40156 1.14992,-2.3966 1.72509,-3.39168 1.29542,0.88621 3.33754,1.53166 3.67357,2.72715 0.32737,1.16477 -1.09077,2.89229 -2.10104,4.42058 z"
   id="path629"
   style="stroke-width:1.01626" />
<path
   fill="#21282a"
   opacity="1"
   stroke="none"
   d="m 313.43814,260.71719 c 0.36066,-0.39363 0.80826,-0.43377 1.57816,-0.57969 1.36231,-0.0285 2.40239,0.0488 3.82095,0.23084 -1.51841,0.30392 -3.41527,0.50311 -5.39911,0.34885 z"
   id="path631"
   style="stroke-width:1.01626" />
<path
   fill="#21282a"
   opacity="1"
   stroke="none"
   d="m 321.28804,260.84516 c 1.03269,-0.29994 2.16244,-0.26896 3.5922,-0.0658 -0.96502,0.24702 -2.23008,0.32186 -3.5922,0.0658 z"
   id="path633"
   style="stroke-width:1.01626" />
<path
   fill="#404549"
   opacity="1"
   stroke="none"
   d="m 275.69267,297.33147 c -0.68299,0.19903 -1.59671,0.19986 -2.55987,-0.12207 0.74344,-0.24053 1.5363,-0.15832 2.55987,0.12207 z"
   id="path635"
   style="stroke-width:1.01626" />
<path
   fill="#242a2c"
   opacity="1"
   stroke="none"
   d="m 539.52778,131.02977 c -1.30353,-0.26655 -2.60605,-0.59505 -3.90857,-0.92352 0.2615,-0.56512 0.52294,-1.13024 0.78444,-1.69535 0.9758,0.60583 1.95167,1.21166 3.0823,2.17145 0.15481,0.35397 0.0429,0.38547 0.0418,0.44742 z"
   id="path637"
   style="stroke-width:1.01626" />
<path
   fill="#1f2528"
   opacity="1"
   stroke="none"
   d="m 488.23669,13.218752 c 1.23587,-1.409522 2.40922,-2.426354 4.81971,-4.515247 0.26461,6.015905 0.46378,10.544336 0.66301,15.072755 -0.36363,0.17247 -0.72726,0.34493 -1.09089,0.51739 -1.48472,-3.56075 -2.9695,-7.121487 -4.39183,-11.074898 z"
   id="path639"
   style="stroke-width:1.01626" />
<path
   fill="#14171b"
   opacity="1"
   stroke="none"
   d="m 395.352,126.72086 c -1.03481,0.68571 -2.51615,1.79573 -4.01517,1.82386 -9.02301,0.16933 -18.05007,0.0906 -27.83046,0.0962 -1.18462,0.006 -1.6146,0.0119 -2.04455,0.0172 -8.86574,-0.0112 -17.73181,0.0181 -26.59687,-0.0721 -1.52802,-0.0156 -3.05161,-0.53801 -4.74833,-1.1867 21.47952,-0.49166 43.13013,-0.6229 65.23538,-0.67845 z"
   id="path641"
   style="stroke-width:1.01626" />

<path
   fill="#1e2427"
   opacity="1"
   stroke="none"
   d="m 361.46236,129.01715 c 0.42941,-0.36436 0.85939,-0.36962 1.61164,-0.36717 0.0324,0.87592 -0.25749,1.74414 -0.54733,2.61236 -0.35461,-0.62869 -0.70919,-1.25737 -1.06431,-2.24519 z"
   id="path645"
   style="stroke-width:1.01626" />
</svg>
